<svg width="308" height="300" viewBox="0 0 308 300" fill="none" xmlns="http://www.w3.org/2000/svg">
<g clip-path="url(#clip0_1724_6590)">
<path d="M110.788 300.034C171.974 300.034 221.575 291.262 221.575 280.441C221.575 269.621 171.974 260.849 110.788 260.849C49.6014 260.849 0 269.621 0 280.441C0 291.262 49.6014 300.034 110.788 300.034Z" fill="#3F3D56"/>
<path d="M150 213C202.467 213 245 170.243 245 117.5C245 64.7568 202.467 22 150 22C97.533 22 55 64.7568 55 117.5C55 170.243 97.533 213 150 213Z" fill="#3F3D56"/>
<path opacity="0.05" d="M150 196C193.63 196 229 160.854 229 117.5C229 74.1456 193.63 39 150 39C106.37 39 71 74.1456 71 117.5C71 160.854 106.37 196 150 196Z" fill="black"/>
<path opacity="0.05" d="M150.5 182C186.122 182 215 153.122 215 117.5C215 81.8776 186.122 53 150.5 53C114.878 53 86 81.8776 86 117.5C86 153.122 114.878 182 150.5 182Z" fill="black"/>
<path opacity="0.05" d="M150 164C175.405 164 196 143.181 196 117.5C196 91.8188 175.405 71 150 71C124.595 71 104 91.8188 104 117.5C104 143.181 124.595 164 150 164Z" fill="black"/>
<path d="M70.8073 118.122C70.8073 118.122 62.2948 142.108 66.0782 150.63C69.8615 159.151 75.8518 167.357 75.8518 167.357C75.8518 167.357 73.6448 119.7 70.8073 118.122Z" fill="#D0CDE1"/>
<path opacity="0.1" d="M70.8073 118.122C70.8073 118.122 62.2948 142.108 66.0782 150.63C69.8615 159.151 75.8518 167.357 75.8518 167.357C75.8518 167.357 73.6448 119.7 70.8073 118.122Z" fill="black"/>
<path d="M76.7975 173.67C76.7975 173.67 76.167 179.666 75.8517 179.982C75.5364 180.297 76.167 180.929 75.8517 181.875C75.5364 182.822 75.2211 184.085 75.8517 184.4C76.4823 184.716 72.3836 212.49 72.3836 212.49C72.3836 212.49 62.2948 225.745 66.3934 246.576L67.6545 267.721C67.6545 267.721 77.4281 268.353 77.4281 264.881C77.4281 264.881 76.7975 260.778 76.7975 258.884C76.7975 256.991 78.3739 256.991 77.4281 256.044C76.4823 255.097 76.4823 254.466 76.4823 254.466C76.4823 254.466 78.0586 253.203 77.7434 252.888C77.4281 252.572 80.5809 230.164 80.5809 230.164C80.5809 230.164 84.0489 226.692 84.0489 224.798V222.905C84.0489 222.905 85.6253 218.802 85.6253 218.486C85.6253 218.171 94.1378 198.918 94.1378 198.918L97.6059 212.805L101.389 232.689C101.389 232.689 103.281 250.679 107.064 257.622C107.064 257.622 113.685 280.346 113.685 279.715C113.685 279.083 124.72 277.505 124.404 274.665C124.089 271.824 117.784 232.057 117.784 232.057L119.36 173.038L76.7975 173.67Z" fill="#2F2E41"/>
<path d="M68.2851 266.143C68.2851 266.143 59.7726 282.871 65.4476 283.502C71.1226 284.133 73.3296 284.133 75.8518 281.608C77.2307 280.228 80.023 278.376 82.2712 276.98C83.6034 276.167 84.6795 274.994 85.3762 273.596C86.0729 272.199 86.362 270.633 86.2104 269.078C86.0441 267.534 85.4678 266.262 84.049 266.143C80.2657 265.828 75.8518 262.356 75.8518 262.356L68.2851 266.143Z" fill="#2F2E41"/>
<path d="M115.261 278.452C115.261 278.452 106.749 295.18 112.424 295.811C118.099 296.442 120.306 296.442 122.828 293.917C124.207 292.537 126.999 290.685 129.248 289.289C130.58 288.476 131.656 287.303 132.353 285.905C133.049 284.508 133.338 282.942 133.187 281.387C133.02 279.843 132.444 278.571 131.025 278.452C127.242 278.137 122.828 274.665 122.828 274.665L115.261 278.452Z" fill="#2F2E41"/>
<path d="M106.265 90.7481C113.584 90.7481 119.518 84.8082 119.518 77.481C119.518 70.1538 113.584 64.2139 106.265 64.2139C98.9451 64.2139 93.0115 70.1538 93.0115 77.481C93.0115 84.8082 98.9451 90.7481 106.265 90.7481Z" fill="#FFB8B8"/>
<path d="M97.7449 81.8401C97.7449 81.8401 88.2784 99.2769 87.5211 99.2769C86.7638 99.2769 104.561 104.963 104.561 104.963C104.561 104.963 109.483 88.2841 110.241 86.7679L97.7449 81.8401Z" fill="#FFB8B8"/>
<path d="M112.266 100.921C112.266 100.921 93.3497 90.506 91.458 90.8216C89.5663 91.1372 69.3886 108.811 69.7039 116.07C70.0191 123.33 72.5413 135.323 72.5413 135.323C72.5413 135.323 73.4872 168.777 75.3788 169.093C77.2705 169.409 75.0636 175.09 75.6941 175.09C76.3247 175.09 119.833 175.09 120.148 174.143C120.464 173.196 112.266 100.921 112.266 100.921Z" fill="#D0CDE1"/>
<path d="M122.828 175.879C122.828 175.879 128.819 194.184 123.774 193.553C118.73 192.922 116.523 177.772 116.523 177.772L122.828 175.879Z" fill="#FFB8B8"/>
<path d="M106.749 99.8165C106.749 99.8165 95.0836 102.341 96.9753 118.122C98.867 133.902 102.335 149.683 102.335 149.683L114 175.247L115.261 179.982L123.774 177.772L117.468 141.162C117.468 141.162 115.261 102.026 112.424 100.763C110.635 99.9998 108.689 99.6751 106.749 99.8165Z" fill="#D0CDE1"/>
<path opacity="0.1" d="M99.655 149.21L114.158 175.09L101.939 147.819L99.655 149.21Z" fill="black"/>
<path d="M119.459 73.5744L119.503 72.5606L121.518 73.0626C121.496 72.7371 121.404 72.4202 121.248 72.1338C121.092 71.8473 120.876 71.5981 120.615 71.4035L122.761 71.2833C120.96 68.7217 118.659 66.5519 115.998 64.9052C113.336 63.2585 110.368 62.1689 107.274 61.7023C102.632 61.0288 97.4636 62.0034 94.2805 65.452C92.7366 67.1247 91.7664 69.2519 91.0763 71.4221C89.8053 75.4191 89.5464 80.1837 92.1967 83.4326C94.8903 86.7347 99.5952 87.3815 103.834 87.7902C105.326 87.934 106.889 88.0677 108.271 87.4884C108.425 85.9014 108.222 84.3 107.677 82.8017C107.45 82.3379 107.342 81.825 107.361 81.3089C107.55 80.0465 109.232 79.7285 110.496 79.899C111.759 80.0696 113.279 80.3305 114.109 79.3618C114.681 78.6946 114.647 77.7229 114.723 76.8469C114.929 74.4621 119.438 74.0744 119.459 73.5744Z" fill="#2F2E41"/>
<path d="M200.747 283.137C209.275 283.137 216.189 276.216 216.189 267.679C216.189 259.142 209.275 252.221 200.747 252.221C192.218 252.221 185.305 259.142 185.305 267.679C185.305 276.216 192.218 283.137 200.747 283.137Z" fill="#86C72C"/>
<path d="M19.3923 277.745C27.9207 277.745 34.8343 270.824 34.8343 262.287C34.8343 253.749 27.9207 246.828 19.3923 246.828C10.8638 246.828 3.9502 253.749 3.9502 262.287C3.9502 270.824 10.8638 277.745 19.3923 277.745Z" fill="#86C72C"/>
<path d="M19.3924 252.94C25.5408 252.94 30.5251 247.95 30.5251 241.795C30.5251 235.64 25.5408 230.651 19.3924 230.651C13.244 230.651 8.25977 235.64 8.25977 241.795C8.25977 247.95 13.244 252.94 19.3924 252.94Z" fill="#86C72C"/>
<path d="M19.3923 232.448C23.7557 232.448 27.2929 228.907 27.2929 224.539C27.2929 220.171 23.7557 216.631 19.3923 216.631C15.0289 216.631 11.4917 220.171 11.4917 224.539C11.4917 228.907 15.0289 232.448 19.3923 232.448Z" fill="#86C72C"/>
<g clip-path="url(#clip1_1724_6590)">
<g filter="url(#filter0_d_1724_6590)">
<path d="M221.226 38.8349H180.808C179.887 38.836 179.004 39.2014 178.352 39.8508C177.701 40.5002 177.335 41.3807 177.333 42.2992V131.873L176.87 132.014L166.955 135.041C166.485 135.184 165.978 135.135 165.544 134.905C165.11 134.676 164.785 134.283 164.641 133.815L135.148 37.7518C135.004 37.2832 135.053 36.777 135.284 36.3443C135.514 35.9117 135.908 35.5881 136.378 35.4446L151.657 30.7794L195.953 17.2597L211.232 12.5945C211.465 12.5231 211.709 12.4982 211.951 12.5211C212.193 12.544 212.429 12.6143 212.644 12.728C212.859 12.8417 213.049 12.9965 213.204 13.1837C213.359 13.3708 213.475 13.5865 213.546 13.8185L221.085 38.373L221.226 38.8349Z" fill="white"/>
</g>
<path d="M230.047 38.374L220.96 8.78012C220.809 8.28704 220.562 7.82848 220.233 7.43067C219.904 7.03285 219.5 6.70357 219.043 6.46164C218.587 6.21971 218.087 6.06987 217.572 6.02069C217.057 5.97151 216.538 6.02395 216.043 6.17502L194.561 12.7317L150.268 26.2537L128.786 32.8127C127.788 33.1183 126.953 33.8062 126.463 34.7254C125.973 35.6446 125.869 36.7201 126.173 37.7158L157.228 138.855C157.475 139.659 157.975 140.363 158.652 140.863C159.33 141.363 160.151 141.633 160.994 141.634C161.384 141.634 161.772 141.575 162.145 141.46L176.871 136.966L177.334 136.823V136.34L176.871 136.481L162.008 141.019C161.128 141.287 160.176 141.196 159.363 140.765C158.55 140.334 157.941 139.599 157.67 138.721L126.618 37.5795C126.484 37.1446 126.437 36.6876 126.481 36.2347C126.524 35.7817 126.656 35.3418 126.871 34.94C127.085 34.5382 127.376 34.1824 127.728 33.8931C128.08 33.6037 128.486 33.3865 128.923 33.2538L150.405 26.6949L194.698 13.1751L216.18 6.61613C216.511 6.51539 216.855 6.46403 217.201 6.46371C217.944 6.46537 218.667 6.70416 219.264 7.14511C219.861 7.58605 220.3 8.20597 220.518 8.91408L229.563 38.374L229.706 38.8359H230.188L230.047 38.374Z" fill="#B7B7B7"/>
<path d="M154.414 35.5201C153.968 35.5198 153.533 35.3768 153.174 35.1122C152.815 34.8476 152.551 34.4752 152.42 34.0497L149.437 24.3333C149.356 24.0723 149.329 23.7981 149.355 23.5264C149.381 23.2547 149.46 22.9907 149.589 22.7497C149.717 22.5086 149.892 22.2951 150.103 22.1214C150.314 21.9477 150.558 21.8172 150.82 21.7374L191.569 9.29757C192.098 9.13672 192.669 9.19158 193.157 9.4501C193.645 9.70863 194.01 10.1497 194.173 10.6765L197.156 20.3931C197.317 20.9202 197.262 21.4895 197.003 21.9762C196.743 22.4629 196.301 22.8272 195.773 22.9891L155.023 35.4289C154.826 35.4893 154.621 35.52 154.414 35.5201Z" fill="#86C72C"/>
<path d="M170.042 16.3822C172.6 16.3822 174.674 14.3143 174.674 11.7633C174.674 9.21226 172.6 7.14427 170.042 7.14427C167.483 7.14427 165.409 9.21226 165.409 11.7633C165.409 14.3143 167.483 16.3822 170.042 16.3822Z" fill="#86C72C"/>
<path d="M170.042 14.6881C171.662 14.6881 172.975 13.3786 172.975 11.7633C172.975 10.1479 171.662 8.83837 170.042 8.83837C168.422 8.83837 167.108 10.1479 167.108 11.7633C167.108 13.3786 168.422 14.6881 170.042 14.6881Z" fill="white"/>
<g filter="url(#filter1_d_1724_6590)">
<path d="M266.013 145H186.987C186.46 144.999 185.955 144.783 185.583 144.398C185.21 144.012 185.001 143.49 185 142.945V45.0545C185.001 44.5098 185.21 43.9876 185.583 43.6024C185.955 43.2173 186.46 43.0006 186.987 43H266.013C266.54 43.0006 267.045 43.2173 267.417 43.6024C267.79 43.9876 267.999 44.5098 268 45.0545V142.945C267.999 143.49 267.79 144.012 267.417 144.398C267.045 144.783 266.54 144.999 266.013 145Z" fill="white"/>
</g>
<path d="M229.562 38.373H180.808C179.764 38.3745 178.763 38.7886 178.025 39.5246C177.287 40.2605 176.872 41.2583 176.87 42.2991V136.48L177.334 136.339V42.2991C177.335 41.3807 177.701 40.5002 178.352 39.8508C179.004 39.2014 179.887 38.836 180.808 38.8349H229.706L229.562 38.373ZM272.063 38.373H180.808C179.764 38.3745 178.763 38.7886 178.025 39.5246C177.287 40.2605 176.872 41.2583 176.87 42.2991V148.074C176.872 149.115 177.287 150.112 178.025 150.848C178.763 151.584 179.764 151.999 180.808 152H272.063C273.106 151.999 274.107 151.584 274.845 150.848C275.583 150.112 275.999 149.115 276 148.074V42.2991C275.999 41.2583 275.583 40.2605 274.845 39.5246C274.107 38.7886 273.106 38.3745 272.063 38.373ZM275.537 148.074C275.536 148.992 275.169 149.873 274.518 150.522C273.867 151.172 272.984 151.537 272.063 151.538H180.808C179.887 151.537 179.004 151.172 178.352 150.522C177.701 149.873 177.335 148.992 177.334 148.074V42.2991C177.335 41.3807 177.701 40.5002 178.352 39.8508C179.004 39.2014 179.887 38.836 180.808 38.8349H272.063C272.984 38.836 273.867 39.2014 274.518 39.8508C275.169 40.5002 275.536 41.3807 275.537 42.2991V148.074Z" fill="#B7B7B7"/>
<path d="M247.743 48.5348H205.127C204.574 48.5342 204.044 48.315 203.654 47.9253C203.263 47.5356 203.043 47.0073 203.042 46.4562V36.2945C203.043 35.7434 203.263 35.2151 203.654 34.8254C204.044 34.4358 204.574 34.2166 205.127 34.2159H247.743C248.296 34.2166 248.826 34.4358 249.217 34.8254C249.608 35.2151 249.827 35.7434 249.828 36.2945V46.4562C249.827 47.0073 249.608 47.5356 249.217 47.9253C248.826 48.315 248.296 48.5342 247.743 48.5348Z" fill="#86C72C"/>
<path d="M226.435 34.9088C228.994 34.9088 231.067 32.8408 231.067 30.2898C231.067 27.7388 228.994 25.6708 226.435 25.6708C223.877 25.6708 221.803 27.7388 221.803 30.2898C221.803 32.8408 223.877 34.9088 226.435 34.9088Z" fill="#86C72C"/>
<path d="M226.435 33.1032C227.993 33.1032 229.257 31.8436 229.257 30.2898C229.257 28.736 227.993 27.4764 226.435 27.4764C224.877 27.4764 223.614 28.736 223.614 30.2898C223.614 31.8436 224.877 33.1032 226.435 33.1032Z" fill="white"/>
</g>
</g>
<defs>
<filter id="filter0_d_1724_6590" x="131.067" y="12.5128" width="94.1592" height="130.609" filterUnits="userSpaceOnUse" color-interpolation-filters="sRGB">
<feFlood flood-opacity="0" result="BackgroundImageFix"/>
<feColorMatrix in="SourceAlpha" type="matrix" values="0 0 0 0 0 0 0 0 0 0 0 0 0 0 0 0 0 0 127 0" result="hardAlpha"/>
<feOffset dy="4"/>
<feGaussianBlur stdDeviation="2"/>
<feComposite in2="hardAlpha" operator="out"/>
<feColorMatrix type="matrix" values="0 0 0 0 0 0 0 0 0 0 0 0 0 0 0 0 0 0 0.25 0"/>
<feBlend mode="normal" in2="BackgroundImageFix" result="effect1_dropShadow_1724_6590"/>
<feBlend mode="normal" in="SourceGraphic" in2="effect1_dropShadow_1724_6590" result="shape"/>
</filter>
<filter id="filter1_d_1724_6590" x="181" y="41" width="91" height="110" filterUnits="userSpaceOnUse" color-interpolation-filters="sRGB">
<feFlood flood-opacity="0" result="BackgroundImageFix"/>
<feColorMatrix in="SourceAlpha" type="matrix" values="0 0 0 0 0 0 0 0 0 0 0 0 0 0 0 0 0 0 127 0" result="hardAlpha"/>
<feOffset dy="2"/>
<feGaussianBlur stdDeviation="2"/>
<feComposite in2="hardAlpha" operator="out"/>
<feColorMatrix type="matrix" values="0 0 0 0 0 0 0 0 0 0 0 0 0 0 0 0 0 0 0.15 0"/>
<feBlend mode="normal" in2="BackgroundImageFix" result="effect1_dropShadow_1724_6590"/>
<feBlend mode="normal" in="SourceGraphic" in2="effect1_dropShadow_1724_6590" result="shape"/>
</filter>
<clipPath id="clip0_1724_6590">
<rect width="308" height="300" fill="white"/>
</clipPath>
<clipPath id="clip1_1724_6590">
<rect width="150" height="146" fill="white" transform="translate(126 6)"/>
</clipPath>
</defs>
</svg>
