<?xml version="1.0" encoding="UTF-8"?>
<!DOCTYPE svg PUBLIC "-//W3C//DTD SVG 1.1//EN" "http://www.w3.org/Graphics/SVG/1.1/DTD/svg11.dtd">
<!-- Creator: CorelDRAW 2018 (64-Bit) -->
<svg xmlns="http://www.w3.org/2000/svg" xml:space="preserve" width="273px" height="35px" version="1.1" style="shape-rendering:geometricPrecision; text-rendering:geometricPrecision; image-rendering:optimizeQuality; fill-rule:evenodd; clip-rule:evenodd"
viewBox="0 0 77.21 9.9"
 xmlns:xlink="http://www.w3.org/1999/xlink">
 <defs>
  <style type="text/css">
   <![CDATA[
    .fil1 {fill:#35AD45;fill-rule:nonzero}
    .fil0 {fill:white;fill-rule:nonzero}
   ]]>
  </style>
 </defs>
 <g id="Layer_x0020_1">
  <metadata id="CorelCorpID_0Corel-Layer"/>
  <g id="_2656008754896">
   <path class="fil0" d="M2.04 0c0.09,0 0.16,0.01 0.21,0.04 0.04,0.03 0.08,0.08 0.12,0.14l4.19 7.61c0.03,0.07 0.09,0.1 0.17,0.1l0.08 0c0.06,0 0.12,-0.03 0.15,-0.1l4.14 -7.61c0.06,-0.12 0.17,-0.18 0.33,-0.18l1.88 0c0.11,0 0.18,0.03 0.2,0.09 0.03,0.06 0.02,0.14 -0.03,0.24l-4.7 8.5c-0.24,0.43 -0.47,0.72 -0.7,0.86 -0.23,0.14 -0.5,0.21 -0.8,0.21l-0.83 0c-0.37,0 -0.68,-0.07 -0.93,-0.21 -0.24,-0.14 -0.48,-0.43 -0.72,-0.86l-4.75 -8.5c-0.05,-0.1 -0.06,-0.18 -0.04,-0.24 0.03,-0.06 0.1,-0.09 0.22,-0.09l1.81 0z"/>
   <path class="fil0" d="M22.81 0c1.1,0 1.89,0.25 2.37,0.74 0.47,0.49 0.71,1.21 0.71,2.17l0 1.05c0,0.96 -0.24,1.69 -0.71,2.18 -0.48,0.49 -1.27,0.73 -2.37,0.73l-5.92 0 0 2.72c0,0.21 -0.11,0.31 -0.32,0.31l-1.55 0c-0.22,0 -0.33,-0.1 -0.33,-0.31l0 -9.17c0,-0.28 0.15,-0.42 0.43,-0.42l7.69 0zm-5.92 5.01l5.48 0c0.49,0 0.83,-0.11 1.03,-0.31 0.2,-0.21 0.3,-0.53 0.3,-0.95l0 -0.54c0,-0.42 -0.1,-0.74 -0.3,-0.95 -0.2,-0.2 -0.54,-0.31 -1.03,-0.31l-5.3 0c-0.12,0 -0.18,0.06 -0.18,0.17l0 2.89z"/>
   <path class="fil0" d="M29.86 0c0.23,0 0.42,0.01 0.57,0.03 0.15,0.02 0.29,0.06 0.4,0.12 0.12,0.06 0.23,0.14 0.33,0.25 0.11,0.11 0.22,0.26 0.36,0.43l5.32 6.91c0.04,0.06 0.1,0.1 0.19,0.1l0.13 0c0.08,0 0.11,-0.05 0.11,-0.15l0 -5.42c0,-0.2 0.11,-0.31 0.32,-0.31l1.5 0c0.21,0 0.32,0.11 0.32,0.31l0 6.16c0,0.57 -0.11,0.96 -0.32,1.17 -0.21,0.2 -0.53,0.3 -0.97,0.3l-1.23 0c-0.22,0 -0.41,-0.01 -0.55,-0.03 -0.15,-0.02 -0.28,-0.05 -0.4,-0.11 -0.11,-0.06 -0.22,-0.14 -0.33,-0.25 -0.11,-0.11 -0.24,-0.26 -0.38,-0.44l-5.34 -6.91c-0.06,-0.06 -0.12,-0.09 -0.19,-0.09l-0.13 0c-0.08,0 -0.11,0.04 -0.11,0.14l0 5.91c0,0.21 -0.11,0.31 -0.32,0.31l-1.5 0c-0.22,0 -0.33,-0.1 -0.33,-0.31l0 -6.65c0,-0.57 0.1,-0.96 0.31,-1.17 0.21,-0.2 0.54,-0.3 0.98,-0.3l1.26 0z"/>
   <path class="fil1" d="M51.51 0c0.21,0 0.32,0.1 0.32,0.31l0 1.34c0,0.21 -0.11,0.32 -0.32,0.32l-6.26 0c-0.37,0 -0.68,0.03 -0.93,0.09 -0.24,0.06 -0.43,0.16 -0.58,0.31 -0.15,0.15 -0.25,0.34 -0.31,0.59 -0.06,0.25 -0.09,0.56 -0.09,0.93l0 0.14 5.61 0c0.21,0 0.32,0.11 0.32,0.31l0 1.12c0,0.21 -0.11,0.31 -0.32,0.31l-5.61 0 0 0.24c0,0.37 0.03,0.68 0.09,0.93 0.06,0.25 0.16,0.45 0.31,0.59 0.15,0.15 0.34,0.25 0.58,0.31 0.25,0.06 0.56,0.09 0.93,0.09l6.26 0c0.21,0 0.32,0.11 0.32,0.32l0 1.34c0,0.21 -0.11,0.31 -0.32,0.31l-6.3 0c-0.73,0 -1.35,-0.07 -1.85,-0.2 -0.51,-0.13 -0.92,-0.34 -1.24,-0.64 -0.32,-0.3 -0.55,-0.68 -0.7,-1.16 -0.15,-0.48 -0.22,-1.05 -0.22,-1.73l0 -2.44c0,-0.67 0.07,-1.25 0.22,-1.72 0.15,-0.47 0.38,-0.86 0.7,-1.15 0.32,-0.3 0.73,-0.52 1.24,-0.65 0.5,-0.14 1.12,-0.21 1.85,-0.21l6.3 0z"/>
   <path class="fil1" d="M73.77 0c1.1,0 1.88,0.25 2.36,0.74 0.48,0.49 0.72,1.21 0.72,2.17l0 0.81c0,0.81 -0.17,1.45 -0.5,1.92 -0.34,0.47 -0.88,0.78 -1.64,0.91l2.45 3c0.05,0.04 0.06,0.11 0.05,0.21 -0.02,0.09 -0.1,0.14 -0.23,0.14l-1.85 0c-0.12,0 -0.21,-0.01 -0.26,-0.04 -0.05,-0.03 -0.09,-0.08 -0.14,-0.14l-2.26 -2.95 -4.63 0 0 2.82c0,0.21 -0.1,0.31 -0.31,0.31l-1.55 0c-0.22,0 -0.33,-0.1 -0.33,-0.31l0 -9.17c0,-0.28 0.14,-0.42 0.43,-0.42l7.69 0zm-5.93 5.05l5.49 0c0.48,0 0.83,-0.1 1.03,-0.31 0.2,-0.21 0.3,-0.52 0.3,-0.95l0 -0.59c0,-0.43 -0.1,-0.74 -0.3,-0.95 -0.2,-0.21 -0.55,-0.31 -1.03,-0.31l-5.3 0c-0.13,0 -0.19,0.05 -0.19,0.17l0 2.94z"/>
   <path class="fil1" d="M63.68 0c0.21,0 0.32,0.1 0.32,0.31l0 1.34c0,0.21 -0.11,0.32 -0.32,0.32l-6.26 0c-0.37,0 -0.68,0.03 -0.93,0.09 -0.24,0.06 -0.43,0.16 -0.58,0.31 -0.15,0.15 -0.25,0.34 -0.31,0.59 -0.06,0.25 -0.09,0.56 -0.09,0.93l0 0.14 5.61 0c0.21,0 0.32,0.11 0.32,0.31l0 1.12c0,0.21 -0.11,0.31 -0.32,0.31l-5.61 0 0 0.24c0,0.37 0.03,0.68 0.09,0.93 0.06,0.25 0.16,0.45 0.31,0.59 0.15,0.15 0.34,0.25 0.58,0.31 0.25,0.06 0.56,0.09 0.93,0.09l6.26 0c0.21,0 0.32,0.11 0.32,0.32l0 1.34c0,0.21 -0.11,0.31 -0.32,0.31l-6.3 0c-0.73,0 -1.35,-0.07 -1.85,-0.2 -0.51,-0.13 -0.92,-0.34 -1.24,-0.64 -0.32,-0.3 -0.55,-0.68 -0.7,-1.16 -0.15,-0.48 -0.22,-1.05 -0.22,-1.73l0 -2.44c0,-0.67 0.07,-1.25 0.22,-1.72 0.15,-0.47 0.38,-0.86 0.7,-1.15 0.32,-0.3 0.73,-0.52 1.24,-0.65 0.5,-0.14 1.12,-0.21 1.85,-0.21l6.3 0z"/>
  </g>
 </g>
</svg>
