<svg width="188" height="44" viewBox="0 0 188 44" fill="none" xmlns="http://www.w3.org/2000/svg">
<mask id="mask0_1335_1299" style="mask-type:luminance" maskUnits="userSpaceOnUse" x="55" y="6" width="78" height="31">
<path d="M132.972 6.87744H55.0762V36.3524H132.972V6.87744Z" fill="white"/>
</mask>
<g mask="url(#mask0_1335_1299)">
<path d="M118.609 34.7408C118.554 34.7408 118.501 34.7189 118.462 34.6799C118.423 34.641 118.401 34.5881 118.401 34.533V9.49215C118.401 9.39387 118.47 9.30865 118.566 9.2887L122.907 8.38497C122.937 8.37866 122.968 8.37918 122.998 8.3865C123.029 8.39382 123.056 8.40775 123.081 8.42727C123.104 8.4468 123.124 8.47143 123.137 8.49938C123.151 8.52732 123.158 8.55785 123.157 8.58878V34.533C123.157 34.5881 123.135 34.641 123.097 34.6799C123.057 34.7189 123.004 34.7408 122.949 34.7408H118.609ZM64.0519 35.2706C62.3181 35.2706 60.7701 34.8463 59.4076 33.9984C58.0451 33.1502 56.9677 31.9904 56.1749 30.5188C55.3822 29.0471 54.9858 27.376 54.9858 25.5051C54.9858 23.6345 55.3822 21.9758 56.1749 20.5292C56.9677 19.0572 58.0451 17.9101 59.4076 17.0869C60.7701 16.2386 62.3181 15.8146 64.0519 15.8146C65.4394 15.8146 66.6532 16.0765 67.6933 16.6005C68.5273 17.0201 69.2341 17.5761 69.8132 18.2687C69.9445 18.4257 70.2202 18.3369 70.2202 18.132V9.04174C70.2202 8.94346 70.289 8.8586 70.3855 8.83865L74.726 7.93456C74.7562 7.92825 74.7874 7.92876 74.8174 7.93604C74.8474 7.94331 74.8754 7.95718 74.8994 7.97663C74.9233 7.99607 74.9426 8.02061 74.9559 8.04847C74.9693 8.07632 74.9761 8.10678 74.9762 8.13764V34.6131C74.9762 34.6682 74.9543 34.7211 74.9153 34.7601C74.8764 34.7991 74.8236 34.8209 74.7684 34.8209H70.9113C70.8632 34.8209 70.8165 34.8042 70.7793 34.7735C70.7422 34.7429 70.7168 34.7003 70.7075 34.653L70.3122 32.6348C70.2771 32.4561 70.0428 32.4032 69.9267 32.5432C69.373 33.2115 68.6782 33.8088 67.8419 34.3347C66.8758 34.9583 65.6124 35.2706 64.0519 35.2706ZM65.0554 31.0798C66.5912 31.0798 67.8419 30.5684 68.808 29.5458C69.7988 28.4984 70.2944 27.1639 70.2944 25.5425C70.2944 23.921 69.7988 22.5992 68.808 21.5765C67.8419 20.5292 66.5912 20.0051 65.0554 20.0051C63.5443 20.0051 62.2935 20.5165 61.3024 21.5392C60.3112 22.5619 59.8163 23.8837 59.8163 25.5051C59.8163 27.1265 60.3116 28.4607 61.3024 29.5088C62.2935 30.5558 63.5443 31.0798 65.0554 31.0798ZM86.5732 35.2731C84.7154 35.2731 83.0683 34.8742 81.6314 34.0761C80.1946 33.2779 79.0676 32.1555 78.2501 30.7088C77.4327 29.2618 77.0241 27.5907 77.0241 25.6951C77.0241 23.7745 77.4204 22.0657 78.2132 20.5694C79.0306 19.0727 80.1453 17.9126 81.5571 17.0897C82.9939 16.2415 84.6784 15.8176 86.6105 15.8176C88.419 15.8176 90.0165 16.2165 91.4036 17.0147C92.791 17.8128 93.8685 18.9106 94.6362 20.3076C95.429 21.6791 95.8253 23.2131 95.8253 24.9096C95.8253 25.1838 95.813 25.4706 95.7884 25.7698C95.7884 26.0095 95.7803 26.2572 95.7644 26.5133C95.761 26.5655 95.7378 26.6145 95.6995 26.6502C95.6612 26.6859 95.6107 26.7057 95.5584 26.7054H81.9654C81.9371 26.7052 81.909 26.7109 81.8829 26.7223C81.8568 26.7336 81.8335 26.7502 81.8142 26.7712C81.7951 26.7921 81.7805 26.8169 81.7714 26.8438C81.7623 26.8706 81.759 26.8992 81.7616 26.9274C81.8943 28.2685 82.3836 29.3293 83.2292 30.1101C84.1457 30.9333 85.2481 31.3449 86.5365 31.3449C87.5023 31.3449 88.3073 31.1328 88.9514 30.7088C89.5817 30.2856 90.0575 29.7522 90.3802 29.1074C90.4165 29.0349 90.4897 28.9877 90.5706 28.9877H94.9898C95.0219 28.9874 95.0538 28.9948 95.0825 29.0091C95.1112 29.0236 95.1362 29.0446 95.1553 29.0704C95.1743 29.0964 95.1869 29.1264 95.1921 29.1583C95.1972 29.19 95.1948 29.2225 95.1848 29.2532C94.8313 30.3222 94.2768 31.3065 93.5218 32.2051C92.729 33.1531 91.7379 33.9013 90.5492 34.4499C89.3851 34.999 88.0596 35.2731 86.5732 35.2731ZM86.6105 19.7089C85.4465 19.7089 84.4184 20.0454 83.5266 20.7188C82.6896 21.3273 82.1362 22.2437 81.8668 23.4677C81.8605 23.4974 81.8609 23.5281 81.8681 23.5576C81.8753 23.5871 81.8889 23.6145 81.9082 23.638C81.9274 23.6615 81.9516 23.6803 81.9791 23.6932C82.0066 23.706 82.0367 23.7125 82.0669 23.7122H90.774C90.8937 23.7122 90.9895 23.611 90.9771 23.492C90.8647 22.3725 90.4251 21.4731 89.6571 20.7938C88.8397 20.0704 87.8243 19.7089 86.6105 19.7089ZM107.263 35.2735C105.405 35.2735 103.759 34.8746 102.321 34.0765C100.885 33.2782 99.7579 32.1558 98.9405 30.7091C98.123 29.2626 97.7143 27.5911 97.7143 25.6955C97.7143 23.7748 98.1106 22.0661 98.9031 20.5697C99.7206 19.0731 100.835 17.913 102.248 17.0901C103.684 16.2418 105.368 15.8179 107.3 15.8179C109.109 15.8179 110.707 16.2169 112.094 17.015C113.481 17.8132 114.558 18.911 115.326 20.3079C116.119 21.6795 116.516 23.2135 116.516 24.91C116.516 25.1841 116.503 25.471 116.479 25.7702C116.479 26.0099 116.47 26.258 116.455 26.5137C116.451 26.5658 116.428 26.6148 116.389 26.6504C116.351 26.6862 116.301 26.7059 116.249 26.7058H102.655C102.628 26.7056 102.599 26.7113 102.573 26.7226C102.547 26.734 102.524 26.7506 102.504 26.7716C102.485 26.7925 102.471 26.8172 102.462 26.8441C102.452 26.871 102.449 26.8995 102.452 26.9278C102.585 28.2689 103.074 29.3296 103.92 30.1104C104.836 30.9336 105.939 31.3453 107.226 31.3453C108.192 31.3453 108.997 31.1331 109.642 30.7091C110.271 30.286 110.748 29.7525 111.07 29.1077C111.107 29.0352 111.179 28.988 111.261 28.988H115.68C115.818 28.988 115.919 29.1215 115.874 29.2535C115.522 30.3226 114.967 31.3068 114.212 32.2055C113.419 33.1535 112.428 33.902 111.239 34.4503C110.075 34.9994 108.75 35.2735 107.263 35.2735ZM107.3 19.7092C106.136 19.7092 105.109 20.0458 104.216 20.7192C103.38 21.328 102.826 22.2441 102.557 23.4681C102.55 23.4978 102.551 23.5284 102.558 23.5579C102.565 23.5874 102.579 23.6149 102.598 23.6384C102.617 23.6619 102.642 23.6807 102.669 23.6935C102.697 23.7064 102.727 23.7128 102.756 23.7126H111.464C111.584 23.7126 111.679 23.6114 111.667 23.4924C111.555 22.3729 111.115 21.4735 110.347 20.7942C109.53 20.0707 108.515 19.7092 107.3 19.7092Z" fill="black" fill-opacity="0.4"/>
<path d="M129.389 34.7462C131.158 34.7462 132.591 33.3026 132.591 31.522C132.591 29.7413 131.158 28.2976 129.389 28.2976C127.621 28.2976 126.188 29.7409 126.188 31.5216C126.188 33.3022 127.621 34.7462 129.389 34.7462Z" fill="black" fill-opacity="0.4"/>
</g>
</svg>
