<svg width="188" height="44" viewBox="0 0 188 44" fill="none" xmlns="http://www.w3.org/2000/svg">
<mask id="mask0_1335_1327" style="mask-type:luminance" maskUnits="userSpaceOnUse" x="50" y="1" width="88" height="41">
<path d="M50.0588 1.6062V41.6203H137.952V1.6062H50.0588Z" fill="white"/>
</mask>
<g mask="url(#mask0_1335_1327)">
<path d="M137.417 41.2397L137.24 40.7907C137.343 40.7025 137.356 40.6449 137.356 40.5491C137.355 40.3825 137.235 40.28 137.041 40.28H136.798V41.2407H136.934V40.8091H137.1L137.273 41.2397H137.417ZM136.934 40.6995V40.3972H137.025C137.156 40.3972 137.212 40.4538 137.213 40.5435C137.213 40.6225 137.171 40.6995 137.025 40.6995H136.934Z" fill="black" fill-opacity="0.4"/>
</g>
<mask id="mask1_1335_1327" style="mask-type:luminance" maskUnits="userSpaceOnUse" x="50" y="1" width="88" height="41">
<path d="M50.0588 1.6062V41.6203H137.952V1.6062H50.0588Z" fill="white"/>
</mask>
<g mask="url(#mask1_1335_1327)">
<path d="M137.079 41.6204C136.598 41.6204 136.206 41.229 136.206 40.7473C136.206 40.2673 136.598 39.877 137.079 39.877C137.56 39.877 137.952 40.2673 137.952 40.7473C137.952 41.229 137.56 41.6204 137.079 41.6204ZM137.079 39.987C136.659 39.987 136.317 40.33 136.317 40.7473C136.317 41.1693 136.659 41.5077 137.079 41.5077C137.498 41.5077 137.839 41.1693 137.839 40.7473C137.839 40.33 137.498 39.987 137.079 39.987Z" fill="black" fill-opacity="0.4"/>
</g>
<mask id="mask2_1335_1327" style="mask-type:luminance" maskUnits="userSpaceOnUse" x="50" y="1" width="88" height="41">
<path d="M50.0588 1.6062V41.6203H137.952V1.6062H50.0588Z" fill="white"/>
</mask>
<g mask="url(#mask2_1335_1327)">
<path d="M91.1157 32.6252L88.7709 39.9033L85.9466 32.6701H85.2219L88.6175 41.5448H88.9361L91.3634 33.7215L93.8319 41.5448H94.1509L97.5302 32.6701H96.7887L94.0046 39.8972L91.6298 32.6252H91.1157Z" fill="black" fill-opacity="0.4"/>
</g>
<mask id="mask3_1335_1327" style="mask-type:luminance" maskUnits="userSpaceOnUse" x="50" y="1" width="88" height="41">
<path d="M50.0588 1.6062V41.6203H137.952V1.6062H50.0588Z" fill="white"/>
</mask>
<g mask="url(#mask3_1335_1327)">
<path d="M100.46 32.6626V41.4726H104.77V40.9048H101.143V32.6626H100.46Z" fill="black" fill-opacity="0.4"/>
</g>
<mask id="mask4_1335_1327" style="mask-type:luminance" maskUnits="userSpaceOnUse" x="50" y="1" width="88" height="41">
<path d="M50.0588 1.6062V41.6203H137.952V1.6062H50.0588Z" fill="white"/>
</mask>
<g mask="url(#mask4_1335_1327)">
<path d="M106.027 32.6626V41.4726H110.336V40.9048H106.706V32.6626H106.027Z" fill="black" fill-opacity="0.4"/>
</g>
<mask id="mask5_1335_1327" style="mask-type:luminance" maskUnits="userSpaceOnUse" x="50" y="1" width="88" height="41">
<path d="M50.0588 1.6062V41.6203H137.952V1.6062H50.0588Z" fill="white"/>
</mask>
<g mask="url(#mask5_1335_1327)">
<path d="M111.537 41.4725H112.22V32.6636H111.537V41.4725Z" fill="black" fill-opacity="0.4"/>
</g>
<mask id="mask6_1335_1327" style="mask-type:luminance" maskUnits="userSpaceOnUse" x="50" y="1" width="88" height="41">
<path d="M50.0588 1.6062V41.6203H137.952V1.6062H50.0588Z" fill="white"/>
</mask>
<g mask="url(#mask6_1335_1327)">
<path d="M98.5178 41.4725H99.2053V32.6636H98.5178V41.4725Z" fill="black" fill-opacity="0.4"/>
</g>
<mask id="mask7_1335_1327" style="mask-type:luminance" maskUnits="userSpaceOnUse" x="50" y="1" width="88" height="41">
<path d="M50.0588 1.6062V41.6203H137.952V1.6062H50.0588Z" fill="white"/>
</mask>
<g mask="url(#mask7_1335_1327)">
<path d="M116.829 32.6167L113.186 41.4726H113.821L115.069 38.4296H118.92L120.165 41.4726H120.804L117.162 32.6167H116.829ZM116.988 33.7247L118.689 37.8649H115.302L116.988 33.7247Z" fill="black" fill-opacity="0.4"/>
</g>
<mask id="mask8_1335_1327" style="mask-type:luminance" maskUnits="userSpaceOnUse" x="50" y="1" width="88" height="41">
<path d="M50.0588 1.6062V41.6203H137.952V1.6062H50.0588Z" fill="white"/>
</mask>
<g mask="url(#mask8_1335_1327)">
<path d="M129.136 32.6799L125.785 36.7692L122.434 32.6799H121.749V41.4725H122.434V33.6757H122.459L125.785 37.7838L129.108 33.6757H129.136V41.4725H129.82V32.6799H129.136Z" fill="black" fill-opacity="0.4"/>
</g>
<mask id="mask9_1335_1327" style="mask-type:luminance" maskUnits="userSpaceOnUse" x="50" y="1" width="88" height="41">
<path d="M50.0588 1.6062V41.6203H137.952V1.6062H50.0588Z" fill="white"/>
</mask>
<g mask="url(#mask9_1335_1327)">
<path d="M135.472 34.1069C134.915 33.3878 134.124 33.217 133.517 33.217C132.462 33.217 131.663 33.9402 131.663 34.8968C131.663 37.2406 135.85 36.1209 135.85 39.2016C135.85 40.5542 134.73 41.6101 133.298 41.6101C132.577 41.6101 131.804 41.4134 131.041 40.8365V40.0379C131.899 40.8508 132.577 40.9798 133.259 40.9798C134.305 40.9798 135.113 40.2183 135.113 39.2266C135.113 36.7258 130.927 37.8201 130.927 34.9223C130.927 33.6222 132.059 32.5912 133.454 32.5872C134.163 32.5872 135.068 32.8771 135.472 33.3603V34.1069Z" fill="black" fill-opacity="0.4"/>
</g>
<mask id="mask10_1335_1327" style="mask-type:luminance" maskUnits="userSpaceOnUse" x="50" y="1" width="88" height="41">
<path d="M50.0588 1.6062V41.6203H137.952V1.6062H50.0588Z" fill="white"/>
</mask>
<g mask="url(#mask10_1335_1327)">
<path d="M63.2002 32.6902V41.4971H67.7276V40.3592H64.4656V32.6902H63.2002Z" fill="black" fill-opacity="0.4"/>
</g>
<mask id="mask11_1335_1327" style="mask-type:luminance" maskUnits="userSpaceOnUse" x="50" y="1" width="88" height="41">
<path d="M50.0588 1.6062V41.6203H137.952V1.6062H50.0588Z" fill="white"/>
</mask>
<g mask="url(#mask11_1335_1327)">
<path d="M68.5386 32.6902V41.4971H73.066V40.3592H69.8044V32.6902H68.5386Z" fill="black" fill-opacity="0.4"/>
</g>
<mask id="mask12_1335_1327" style="mask-type:luminance" maskUnits="userSpaceOnUse" x="50" y="1" width="88" height="41">
<path d="M50.0588 1.6062V41.6203H137.952V1.6062H50.0588Z" fill="white"/>
</mask>
<g mask="url(#mask12_1335_1327)">
<path d="M73.8818 32.6902V41.4971H78.9964V40.3592H75.1473V37.624H78.7523V36.486H75.1473V33.8262H78.8797V32.6902H73.8818Z" fill="black" fill-opacity="0.4"/>
</g>
<mask id="mask13_1335_1327" style="mask-type:luminance" maskUnits="userSpaceOnUse" x="50" y="1" width="88" height="41">
<path d="M50.0588 1.6062V41.6203H137.952V1.6062H50.0588Z" fill="white"/>
</mask>
<g mask="url(#mask13_1335_1327)">
<path d="M85.4949 41.4951L83.8642 37.3808C84.834 36.5797 84.9435 36.036 84.9328 35.1548C84.9191 33.631 83.8244 32.6902 82.0413 32.6902H79.8203V41.4982H81.0862V37.5597C81.0862 37.5597 82.1315 37.5607 82.5942 37.5577L84.1862 41.4951H85.4949ZM81.0862 36.5394V33.7753H81.899C83.1262 33.7753 83.617 34.2798 83.6302 35.1049C83.6435 35.8428 83.2551 36.5394 81.899 36.5394H81.0862Z" fill="black" fill-opacity="0.4"/>
</g>
<mask id="mask14_1335_1327" style="mask-type:luminance" maskUnits="userSpaceOnUse" x="50" y="1" width="88" height="41">
<path d="M50.0588 1.6062V41.6203H137.952V1.6062H50.0588Z" fill="white"/>
</mask>
<g mask="url(#mask14_1335_1327)">
<path d="M57.2693 32.6902V41.4829H62.3736V40.3464H58.5331V37.6143H62.1295V36.4804H58.5331V33.8252H62.2584V32.6902H57.2693Z" fill="black" fill-opacity="0.4"/>
</g>
<mask id="mask15_1335_1327" style="mask-type:luminance" maskUnits="userSpaceOnUse" x="50" y="1" width="88" height="41">
<path d="M50.0588 1.6062V41.6203H137.952V1.6062H50.0588Z" fill="white"/>
</mask>
<g mask="url(#mask15_1335_1327)">
<path d="M55.0164 32.6902L54.5695 33.1739L51.3267 36.7025V32.6902H50.0635V41.465H51.3267V38.4526L52.7323 36.9125L54.5725 41.4671H55.8767V41.4661L55.4165 40.3336L53.6328 35.9238L55.5526 33.8221L56.5865 32.6902H55.0164Z" fill="black" fill-opacity="0.4"/>
</g>
<mask id="mask16_1335_1327" style="mask-type:luminance" maskUnits="userSpaceOnUse" x="50" y="1" width="88" height="41">
<path d="M50.0588 1.6062V41.6203H137.952V1.6062H50.0588Z" fill="white"/>
</mask>
<g mask="url(#mask16_1335_1327)">
<path d="M50.0588 1.6062V28.2476H53.7759V21.9985L56.5019 19.2894L60.293 28.2476H64.059L59.0525 16.3615L62.5674 12.4675L69.3835 28.2476H70.8145L75.9285 16.0425L81.125 28.2476H82.5357L90.3246 10.2796H86.5107L81.8222 21.1817L77.2749 10.2796H74.6443L70.0588 21.1817L65.3443 10.2796H60.4005L53.7759 16.8916V1.6062H50.0588Z" fill="black" fill-opacity="0.4"/>
</g>
</svg>
