<svg width="188" height="44" viewBox="0 0 188 44" fill="none" xmlns="http://www.w3.org/2000/svg">
<path d="M89.6514 19.0788V35.1813C87.7846 35.1813 85.9178 35.1813 84.051 35.1813C84.051 26.1053 84.051 17.127 84.051 8.05103H89.5532C92.5008 12.9306 95.4483 17.8101 98.3959 22.7873C101.343 17.8101 104.291 12.9306 107.239 8.05103H112.741V35.1813C110.874 35.1813 109.105 35.1813 107.239 35.1813C107.239 29.8138 107.239 24.4463 107.239 19.0788H107.14C104.782 23.08 102.326 26.9837 99.968 30.9849C98.9854 30.9849 98.0029 30.9849 96.9221 30.9849C94.4658 26.9837 92.1077 23.08 89.6514 19.0788Z" fill="black" fill-opacity="0.4"/>
<path d="M139.564 35.1812C139.564 26.1053 139.564 17.0293 139.564 8.05096C139.662 7.95337 139.76 7.95337 139.858 7.95337C143.985 7.95337 148.112 7.95337 152.238 7.95337C154.695 7.95337 156.758 8.7341 158.526 10.5883C160.786 13.0281 161.376 16.7366 158.723 19.5667C158.428 19.8595 158.035 20.1522 157.74 20.445C157.839 20.5426 157.937 20.5426 158.035 20.6402C160.197 21.8113 161.278 23.5679 161.572 25.9101C161.769 27.8619 161.572 29.8137 160.393 31.4728C159.116 33.4246 157.151 34.4005 154.891 34.8885C154.007 35.0836 153.024 35.1812 152.14 35.1812C148.21 35.1812 144.182 35.1812 140.251 35.1812C139.957 35.1812 139.76 35.1812 139.564 35.1812ZM145.066 30.0089C145.164 30.0089 145.262 30.0089 145.262 30.0089C147.719 30.0089 150.175 30.0089 152.533 30.0089C152.828 30.0089 153.123 29.9113 153.319 29.9113C154.891 29.521 155.874 27.9595 155.677 26.4956C155.481 24.8366 154.105 23.5679 152.435 23.5679C150.077 23.5679 147.62 23.5679 145.262 23.5679C145.164 23.5679 145.066 23.5679 144.968 23.6655C145.066 25.7149 145.066 27.8619 145.066 30.0089ZM145.066 18.5908C145.164 18.5908 145.164 18.5908 145.164 18.5908C147.522 18.5908 149.88 18.5908 152.238 18.5908C153.81 18.5908 154.989 17.3221 154.989 15.7606C154.989 14.1992 153.712 13.1257 152.14 13.1257C149.88 13.1257 147.719 13.1257 145.459 13.1257C145.361 13.1257 145.164 13.1257 145.066 13.1257V18.5908Z" fill="black" fill-opacity="0.4"/>
<path d="M135.437 35.1813C129.444 35.1813 123.45 35.1813 117.457 35.1813C117.457 26.1053 117.457 17.127 117.457 8.05103H122.959V29.7162H135.437V35.1813Z" fill="black" fill-opacity="0.4"/>
<path d="M163.832 35.1813C163.439 34.9861 163.636 34.5957 163.537 34.4005C163.341 34.4981 163.341 34.7909 163.046 34.8885C162.85 34.7909 162.85 34.4981 162.653 34.4005C162.555 34.5957 162.653 34.8885 162.555 35.0837C162.457 35.1813 162.457 35.0837 162.358 35.0837C162.358 34.5957 162.358 34.2054 162.358 33.6198C162.85 33.6198 162.85 34.2054 163.144 34.3029C163.439 34.1078 163.439 33.6198 163.93 33.5222V35.1813H163.832Z" fill="black" fill-opacity="0.4"/>
<path d="M162.064 33.8149C161.965 34.1076 161.769 33.9124 161.572 34.1076V35.1811C161.179 35.1811 161.278 34.8884 161.278 34.6932C161.278 34.498 161.278 34.3028 161.278 34.1076C161.179 33.9124 160.983 34.01 160.884 33.9124C160.786 33.7173 160.885 33.7173 161.081 33.7173C161.376 33.7173 161.769 33.6197 162.064 33.8149Z" fill="black" fill-opacity="0.4"/>
<path d="M59.6845 7.85571C62.8285 11.9545 66.0709 16.0534 69.215 20.2498C69.1167 20.7377 68.9202 21.2257 68.822 21.7136C68.1342 21.3233 67.4464 20.9329 66.7587 20.7377C66.3656 20.6401 65.8744 20.6401 65.3831 20.6401C64.0076 20.6401 62.5338 20.6401 61.1583 20.6401C60.667 20.6401 60.5687 20.5425 60.3722 20.0546C60.274 19.5666 60.274 18.9811 60.3722 18.4931C60.5687 18.3955 60.7652 18.4931 60.9617 18.3955C60.9617 18.1028 60.9617 17.81 61.06 17.5172C61.06 16.3461 60.9617 15.2726 60.5687 14.1991C60.1757 13.2232 59.488 12.4425 58.6037 11.8569C56.8351 10.7834 54.9683 10.2955 52.905 10.6858C50.6452 11.0762 49.1714 12.7353 48.8767 14.9798C48.8767 15.2726 48.7784 15.663 48.7784 15.9558C48.2872 16.3461 47.6976 16.6389 47.2064 17.0293C46.7151 17.4196 46.1256 17.81 45.5361 18.2003H49.4662C49.5644 18.3955 49.5644 18.5907 49.6627 18.7859C49.2697 19.6642 48.8767 20.4449 48.4837 21.4208C49.0732 21.616 49.5644 21.5184 50.0557 21.5184C50.4487 21.9088 50.6452 23.0799 50.3505 23.5679C48.2872 24.251 47.4029 25.91 46.8134 27.7643C46.2239 29.4233 46.1256 31.1799 46.1256 32.9366C46.1256 33.0342 46.1256 33.0342 46.1256 33.1318H48.3854C48.7784 33.8149 49.1714 34.4004 49.4662 35.0836C49.3679 35.1812 49.2697 35.1812 49.1714 35.1812C42.8833 35.1812 36.6933 35.1812 30.4052 35.1812C28.5384 35.1812 27.1628 33.9125 27.1628 31.9607C27.1628 25.0317 27.1628 18.0052 27.1628 11.0762C27.1628 9.22199 28.4401 7.85571 30.4052 7.85571H59.5862H59.6845ZM31.1912 28.7402C31.1912 29.9113 32.1737 30.8872 33.2545 30.8872C34.4335 30.8872 35.4161 29.9113 35.4161 28.7402C35.4161 27.5691 34.4335 26.5932 33.2545 26.5932C32.1737 26.5932 31.1912 27.5691 31.1912 28.7402Z" fill="black" fill-opacity="0.4"/>
<path d="M71.5729 35.1812C71.5729 34.498 71.5729 33.9125 71.5729 33.2294C71.6712 33.1318 71.7695 33.2294 71.8677 33.2294C73.2432 33.2294 74.5205 33.2294 75.8961 33.2294C76.3873 33.2294 76.7803 33.1318 77.1733 32.7414C78.0576 31.9607 78.6471 30.8872 79.0401 29.8137C79.1384 29.6185 79.0401 29.4233 78.9419 29.2281C78.7454 29.0329 78.6471 28.8378 78.4506 28.6426C78.1559 28.2522 77.8611 27.7643 77.6646 27.2763C77.4681 26.6908 77.1733 26.3004 76.5838 26.0076C75.9943 25.7148 75.4048 25.3245 74.9135 24.8365C74.9135 24.4462 74.9135 24.0558 74.9135 23.6654C74.717 23.4703 74.6188 23.2751 74.4223 23.0799C74.2258 23.0799 74.1275 22.9823 73.931 22.9823C73.931 22.2992 73.7345 21.9088 72.9485 21.7136C73.0467 21.2257 72.8502 20.9329 72.5555 20.6401C72.359 20.6401 72.1625 20.5425 71.8677 20.5425C69.3131 16.3461 66.8568 12.1497 64.3022 7.9533C64.4005 7.85571 64.4988 7.85571 64.597 7.85571C68.9201 7.85571 73.2432 7.85571 77.5663 7.85571C79.2366 7.85571 80.6122 9.12439 80.6122 10.7834C80.6122 12.4425 80.6122 14.1015 80.6122 15.663C80.6122 21.1281 80.6122 26.4956 80.6122 31.9607C80.6122 33.5221 79.6297 34.7908 78.1559 35.0836C77.9594 35.0836 77.7629 35.1812 77.5663 35.1812C75.6996 35.1812 73.7345 35.1812 71.8677 35.1812C71.7695 35.1812 71.6712 35.1812 71.5729 35.1812Z" fill="black" fill-opacity="0.4"/>
<path d="M81.3983 35.2789C80.9071 35.2789 80.5141 34.8885 80.6123 34.4005C80.6123 33.9126 81.0053 33.5222 81.4966 33.5222C81.9879 33.5222 82.3809 33.9126 82.2826 34.4005C82.2826 34.8885 81.8896 35.2789 81.3983 35.2789ZM81.3983 33.7174C81.0053 33.7174 80.7106 34.0102 80.7106 34.4005C80.7106 34.7909 81.0053 35.0837 81.3983 35.0837C81.7914 35.0837 82.0861 34.7909 82.0861 34.4005C82.0861 34.0102 81.7914 33.7174 81.3983 33.7174Z" fill="black" fill-opacity="0.4"/>
<path d="M81.1035 34.8883C81.0052 34.5955 81.1035 34.3027 81.1035 34.01C81.3 33.9124 81.5947 33.9124 81.7913 34.01C81.9878 34.2051 81.8895 34.4003 81.693 34.4979C81.7913 34.5955 81.7913 34.6931 81.8895 34.7907C81.5947 34.8883 81.693 34.4979 81.3982 34.4979C81.2017 34.5955 81.3 34.7907 81.1035 34.8883ZM81.3 34.1076C81.3 34.2051 81.3 34.3027 81.3982 34.3027C81.4965 34.3027 81.693 34.3027 81.693 34.2051C81.5948 34.01 81.3982 34.1076 81.3 34.1076Z" fill="black" fill-opacity="0.4"/>
</svg>
