<svg width="187" height="44" viewBox="0 0 187 44" fill="none" xmlns="http://www.w3.org/2000/svg">
<path d="M40.3223 18.5247C40.3223 13.1584 43.3354 11.8926 48.3988 11.8926H56.8551C63.2351 11.8926 64.1209 14.1949 64.1209 17.7648V18.3479H58.6006C58.6006 16.5253 57.5623 16.2977 55.7662 16.2977H49.6646C46.8282 16.2977 46.0947 16.9805 46.0947 20.1197V22.3976C46.0947 25.5387 46.8282 26.2215 49.6646 26.2215H55.6646C57.1336 26.2215 58.6006 25.9939 58.6006 24.2221V23.6898H51.6131V19.8922H64.2225V25.108C64.2225 30.3726 61.4878 30.6266 55.1586 30.6266H48.3988C43.3354 30.6266 40.3223 29.3607 40.3223 23.9944V18.5247Z" fill="black" fill-opacity="0.4"/>
<path d="M65.9722 12.094H86.0223V16.3467H71.5922V19.2848H85.2643V23.0824H71.5922V26.0185H86.3514V30.4236H65.9722V12.094Z" fill="black" fill-opacity="0.4"/>
<path d="M88.1016 12.094H93.7235V30.4236H88.1016V12.094Z" fill="black" fill-opacity="0.4"/>
<path d="M95.4731 18.5247C95.4731 13.1584 98.486 11.8926 103.55 11.8926H110.157C118.156 11.8926 119.197 13.6136 119.143 18.8031H113.524V18.2971C113.524 16.9805 112.563 16.6005 110.891 16.6005H104.765C101.802 16.6005 101.246 17.9943 101.246 20.2721V22.247C101.246 24.9048 101.802 25.9186 104.461 25.9186H110.461C112.993 25.9186 113.752 25.6647 113.752 23.385H119.371V25.108C119.371 28.1964 118.258 30.6266 112.612 30.6266H103.55C98.486 30.6266 95.4731 29.3607 95.4731 23.9944V18.5247Z" fill="black" fill-opacity="0.4"/>
<path d="M126.894 22.2467C126.894 24.9043 127.45 25.9182 130.11 25.9182H137.299C139.956 25.9182 140.513 24.9043 140.513 22.2467V20.2716C140.513 17.9938 139.956 16.6001 136.996 16.6001H130.412C127.45 16.6001 126.894 17.9938 126.894 20.2716V22.2467ZM121.121 18.5243C121.121 13.158 124.134 11.8921 129.198 11.8921H138.209C143.274 11.8921 146.287 13.158 146.287 18.5243V23.994C146.287 29.3603 143.274 30.6261 138.209 30.6261H129.198C124.134 30.6261 121.121 29.3603 121.121 23.994V18.5243Z" fill="black" fill-opacity="0.4"/>
</svg>
