<svg width="188" height="44" viewBox="0 0 188 44" fill="none" xmlns="http://www.w3.org/2000/svg">
<mask id="mask0_1335_1288" style="mask-type:luminance" maskUnits="userSpaceOnUse" x="35" y="2" width="117" height="39">
<path d="M151.882 2.3335H35.5068V40.8966H151.882V2.3335Z" fill="white"/>
</mask>
<g mask="url(#mask0_1335_1288)">
<path d="M89.2143 19.992C86.1987 19.992 85.9596 17.6955 85.9596 17.0183C85.9596 16.2153 86.1425 14.7217 88.1017 14.0026C90.0601 13.2844 90.4829 13.1997 91.8783 12.7624V12.4244C91.8783 11.748 91.8783 11.6214 91.7231 11.1842C91.484 10.4089 90.723 9.88774 89.6657 9.88774C88.6656 9.88774 87.8055 10.4517 87.4111 11.2832L86.8473 10.945C87.1855 9.70489 88.4675 8.46473 90.6659 8.46473C92.1879 8.46473 93.2443 8.9019 93.8643 9.86013C94.3291 10.6354 94.3853 11.6776 94.3853 12.7348C94.3853 13.6931 94.3291 14.7503 94.3291 15.6095C94.3291 16.1734 94.2729 16.723 94.2729 17.0326C94.2729 17.8079 94.4282 18.4279 95.0482 18.4279C95.3302 18.4279 95.3864 18.3289 95.6121 18.1889L95.9502 18.626C95.3864 19.4014 94.7101 20.0214 93.5967 20.0214C92.7375 20.0214 92.1175 19.5842 91.8631 18.8803C91.5107 19.3737 90.5953 19.9938 89.2143 19.9938V19.992ZM91.8775 14.1436C90.3982 14.5808 89.862 14.8199 89.44 15.0457C88.7637 15.3837 88.4818 16.0038 88.4818 16.8068C88.4818 17.427 88.7209 18.427 90.1582 18.427C90.623 18.427 91.2993 18.328 91.9194 17.906V14.1293H91.8775V14.1436ZM66.9784 19.3996C66.9784 18.2862 66.9784 17.3422 66.8794 16.201H67.5557C67.5557 16.9193 67.7386 17.4412 68.0767 17.7794C68.5415 18.3004 69.655 18.6386 70.6551 18.6386C72.7544 18.6386 73.7554 17.8356 73.7554 16.102C73.7554 14.6227 72.8534 14.0026 71.6133 13.1283L71.4304 12.973L70.0922 12.0711C68.232 10.8308 67.2738 9.87261 67.2738 7.91423C67.2738 6.95601 67.6539 3.79939 72.2905 3.79939C73.4878 3.79939 75.0099 3.95463 75.9261 4.08132C75.9261 4.23657 75.8699 4.94052 75.8699 5.5606C75.8699 6.27882 75.8699 6.46262 75.9261 7.32181H75.3623C75.3623 6.54649 75.1231 6.08164 74.7984 5.7435C74.3612 5.30632 73.3754 5.06721 72.3182 5.06721C69.8379 5.06721 69.5559 6.30737 69.5559 7.2656C69.5559 8.56198 70.2323 9.02682 71.6981 9.98501L73.3745 11.0985C74.7975 12.0567 76.1367 12.9587 76.1367 15.3544C76.1367 19.3701 72.3601 19.793 70.7818 19.793C69.3303 19.9902 68.1187 19.7788 66.9775 19.3987L66.9784 19.3996ZM96.9923 9.18295C97.5562 9.23915 98.4153 9.18295 99.247 9.0277C99.9652 8.87247 100.205 8.78859 100.726 8.56287L100.965 8.71811V9.5773C101.529 9.14012 102.641 8.52004 104.22 8.52004C106.235 8.52004 107.531 9.47827 107.898 11.1547C107.997 11.5919 108.053 12.5778 108.053 13.1702V16.425C108.053 18.2424 108.152 18.7786 108.49 19.1025C108.673 19.2577 109.054 19.4406 109.603 19.4406V19.9617C108.885 19.9055 107.588 19.8627 106.842 19.8627C105.841 19.8627 104.699 19.9189 104.079 19.9617V19.4406C104.643 19.3844 104.981 19.2015 105.192 19.0606C105.531 18.7224 105.572 18.1023 105.629 16.7069C105.629 16.2698 105.686 15.4106 105.686 14.7904C105.686 13.9875 105.686 13.114 105.587 12.2539C105.432 10.8308 104.685 10.1546 103.233 10.1546C102.233 10.1546 101.613 10.3936 101.133 10.6194V16.4535C101.133 18.2709 101.233 18.8072 101.571 19.131C101.754 19.2862 102.191 19.4692 102.629 19.4692V19.9902C101.726 19.934 100.613 19.8912 99.9092 19.8912C98.4296 19.8912 97.9505 19.9474 97.0905 19.9902V19.4406C97.5553 19.4406 98.0487 19.2577 98.2877 18.9758C98.6261 18.5957 98.6673 17.6375 98.6673 15.7772V12.4653C98.6673 11.07 98.6113 10.507 98.4287 10.2108C98.2735 9.97165 97.9077 9.77358 97.1324 9.77358V9.15351H97.0334V9.18205H96.9914L96.9923 9.18295ZM110.816 19.371C111.28 19.371 111.774 19.2158 112.013 18.9062C112.351 18.5261 112.393 17.5678 112.393 15.7077V10.1411H110.97V9.52109C111.59 9.28198 112.111 9.00004 112.393 8.74577C112.393 7.74561 112.449 6.49117 112.576 5.77205C113.013 3.47551 114.492 2.3335 117.015 2.3335C118.128 2.3335 119.157 2.71358 119.833 3.23552L119.889 3.47462L118.776 4.99673H118.494C118.113 4.09471 117.536 3.57366 116.536 3.57366C116.198 3.57366 115.733 3.67269 115.422 3.95374C114.958 4.41858 114.858 5.15108 114.858 6.58842V8.7306H117.338V10.126H114.858V16.2983C114.858 17.7775 114.915 18.4967 115.097 18.7786C115.379 19.2434 116.394 19.2997 116.859 19.2997V19.8636C116.055 19.8074 114.759 19.7645 113.843 19.7645C112.448 19.7645 111.547 19.8207 110.827 19.8636L110.813 19.3701L110.816 19.371ZM123.625 20.0759C120.242 20.0759 118.228 17.9765 118.228 14.4389C118.228 11.6767 119.707 8.46383 123.865 8.46383C127.247 8.46383 129.262 10.5632 129.262 14.1008C129.262 16.863 127.768 20.0759 123.625 20.0759ZM123.766 9.74682C123.09 9.74682 122.568 9.92969 122.188 10.2679C121.286 11.0432 120.85 12.3672 120.85 14.3265C120.85 15.1019 121.005 18.8214 123.723 18.8214C124.4 18.8214 124.921 18.6386 125.302 18.3004C126.204 17.5251 126.64 16.201 126.64 14.2418C126.627 13.4807 126.5 9.74682 123.766 9.74682ZM130.402 9.12674C131.178 9.18295 131.981 9.07053 132.84 8.94383C133.517 8.8448 133.954 8.70472 134.179 8.56375L134.362 8.66279V9.62102C134.882 9.09997 135.757 8.56375 136.94 8.56375C137.799 8.56375 138.363 8.80287 138.898 9.24005V9.5782L137.94 11.3118H137.475C137.193 10.7907 136.615 10.3116 135.615 10.3116C135.15 10.3116 134.756 10.4106 134.418 10.6498V16.3429C134.418 17.8221 134.474 18.4851 134.656 18.7803C134.938 19.2453 135.897 19.3015 136.418 19.2453V19.8653C135.643 19.8091 134.318 19.7663 133.402 19.7663C132.345 19.7663 131.26 19.7663 130.386 19.8653V19.3015C131.006 19.2453 131.344 19.1185 131.584 18.8366C131.922 18.4565 131.964 17.5402 131.964 15.638V12.5376C131.964 11.1422 131.964 10.5792 131.725 10.283C131.542 10.044 131.161 9.90297 130.429 9.90297V9.18473L130.4 9.12853L130.402 9.12674ZM146.043 3.01157C146.72 3.01157 147.566 2.85632 148.678 2.67342C149.298 2.5744 149.678 2.43431 149.876 2.39149L150.059 2.49052C149.959 3.39254 149.959 5.46424 149.959 6.92924V16.0038C149.959 17.3422 149.959 18.2022 150.142 18.4842C150.325 18.7233 150.706 18.9213 151.439 18.9213V19.4852C150.721 19.4852 149.916 19.5842 149.057 19.7243C148.493 19.8234 148.057 19.9073 147.818 20.0063L147.536 19.9073V18.949C146.972 19.3862 145.915 20.0063 144.435 20.0063C141.377 20.0063 139.418 17.9069 139.418 14.6093C139.418 13.4959 139.601 12.5099 139.982 11.5937C140.94 9.5782 142.857 8.43706 145.281 8.43706C146.183 8.43706 146.957 8.5361 147.423 8.61996V6.26634C147.423 4.87093 147.423 4.16698 147.184 3.82883C147.029 3.58972 146.804 3.49068 145.986 3.44875V2.99819H146.042V3.01246L146.043 3.01157ZM145.649 18.4414C146.424 18.4414 146.945 18.3424 147.467 18.0042V10.5641C147.284 10.3812 146.607 9.78875 145.268 9.78875C143.126 9.78875 142.07 11.2681 142.07 14.3398C142.028 15.622 142.408 18.4414 145.649 18.4414ZM84.8604 18.7795C84.5223 19.2167 83.6631 20.0759 81.8448 20.0759C80.0266 20.0759 79.1674 19.4558 78.7445 18.0604C78.5616 17.5394 78.5616 16.4401 78.5616 15.8057C78.5616 14.0446 78.5616 12.6072 78.6179 10.9299V10.1546H77.1243V9.71738C77.6882 9.47827 78.1245 9.25254 78.5197 8.94206C79.3789 8.26576 79.9428 7.46277 80.577 6.26455H81.0419V8.74488H84.8185V10.1402H81.0419V15.9744C81.0419 17.7357 81.38 18.6939 83.0002 18.6939C83.7756 18.6939 84.2966 18.4547 84.5785 18.2567L84.8604 18.7777V18.7795Z" fill="black" fill-opacity="0.4"/>
<path d="M137.829 29.2075C137.645 29.2075 137.392 29.2637 137.265 29.3905C137.11 29.4895 137.11 29.6295 137.11 29.7285C137.11 29.9115 137.166 30.0667 137.293 30.4467L138.35 33.209C138.505 33.6462 138.632 33.9843 138.688 34.2092L139.984 30.4325C140.14 29.9953 140.167 29.9115 140.167 29.7143C140.167 29.6153 140.11 29.5313 140.012 29.4323C139.857 29.3333 139.673 29.2495 139.448 29.2495V28.8123C139.603 28.8123 139.913 28.8123 140.068 28.8685C140.223 28.8685 140.505 28.9246 140.744 28.9246C141.209 28.9246 141.886 28.8685 142.168 28.8685V29.3057C141.984 29.3619 141.547 29.2495 141.167 30.3629L138.448 37.6201C138.068 38.6773 137.546 39.9737 135.685 39.9737C134.91 39.9737 134.389 39.7908 133.952 39.4099V39.2269L134.628 38.4239H134.811C134.995 38.8612 135.375 39.0441 135.925 39.0441C136.784 39.0441 137.165 38.2687 137.741 36.7475L137.897 36.3103L135.614 30.3496C135.614 30.2933 135.557 30.1943 135.515 30.1104C135.459 29.9552 135.332 29.6732 135.332 29.6732C135.177 29.3913 134.952 29.2932 134.656 29.2932V28.856C135.093 28.9122 135.853 28.9122 136.234 28.9122C136.473 28.9122 136.854 28.9122 137.235 28.856C137.417 28.856 137.755 28.7998 137.91 28.7998V29.1798H137.854V29.2084H137.826L137.829 29.2075ZM112.52 29.1085C112.986 29.1647 113.521 29.0523 114.043 28.9532C114.48 28.8542 114.719 28.798 114.902 28.7141L115.057 28.7703V29.3905C115.395 29.0523 115.917 28.7141 116.677 28.7141C117.241 28.7141 117.579 28.8693 117.918 29.1513V29.3905L117.354 30.5039H117.072C116.889 30.1657 116.551 29.8838 115.875 29.8838C115.593 29.8838 115.354 29.9828 115.099 30.1229V33.7158C115.099 34.674 115.155 35.1113 115.255 35.2941C115.437 35.5761 116.03 35.6323 116.368 35.6323V36.0123C115.903 35.9561 115.03 35.9561 114.452 35.9561C113.775 35.9561 113.056 35.9561 112.535 36.0551V35.6751C112.915 35.6751 113.155 35.5199 113.31 35.3931C113.55 35.1541 113.55 34.5901 113.55 33.3358V31.3203C113.55 30.4611 113.55 30.0801 113.395 29.8972C113.296 29.7419 113.015 29.6581 112.591 29.6581V29.1371H112.52V29.1085ZM80.7031 36.0418C78.6877 36.0418 77.5046 35.4217 77.0675 34.0834C76.8283 33.4071 76.8283 32.5613 76.8283 31.885V28.0663C76.8283 26.9253 76.7721 26.7281 76.5464 26.5442C76.4473 26.4452 76.2083 26.3614 75.8701 26.3052V25.9251C76.3349 25.9813 77.1665 26.0241 77.6313 26.0241C78.4343 26.0241 78.9277 26.0241 79.4487 25.9251V26.3623C79.1105 26.3623 78.8848 26.4613 78.6733 26.6442C78.4343 26.8833 78.4343 27.3205 78.4343 28.5606V31.943C78.4343 33.9585 78.6171 35.2549 80.8717 35.2549C83.1263 35.2549 83.3091 33.9165 83.3091 31.8725V28.152C83.3091 27.0109 83.2529 26.8137 83.0272 26.6299C82.8719 26.5309 82.6471 26.447 82.3509 26.3908V26.0108C82.7881 26.0108 83.3511 26.067 83.9291 26.067C84.4503 26.067 84.9864 26.067 85.6056 25.9679V26.4051C85.2675 26.4051 85.0417 26.5042 84.8303 26.687C84.5911 26.9261 84.5911 27.3634 84.5911 28.6035V31.4782C84.5911 32.3802 84.5911 33.3946 84.3093 34.1976C83.8587 35.4235 82.7024 36.0436 80.7022 36.0436L80.7031 36.0418ZM94.3293 35.6046C94.7094 35.5484 94.9494 35.5055 95.1323 35.3227C95.3714 35.0836 95.3714 34.5197 95.3714 33.2652V31.2497C95.3714 30.3905 95.3714 29.9534 95.2162 29.7705C95.1172 29.6152 94.9342 29.5313 94.4132 29.4885V29.0514C94.6951 29.1076 95.4705 28.9952 96.0334 28.8962C96.3153 28.84 96.5973 28.7409 96.8087 28.657L96.9639 28.8123C96.9077 29.2771 96.9077 30.2915 96.9077 31.6307V33.6882C96.9077 34.6464 96.9639 35.0835 97.063 35.2665C97.2182 35.4493 97.5002 35.6046 97.9221 35.6046V35.9427C97.5421 35.8865 96.8087 35.8865 96.1887 35.8865C95.4705 35.8865 94.7094 35.9427 94.3284 35.9856V35.6056L94.3293 35.6046ZM96.0905 27.4312C95.5267 27.4312 95.1885 27.093 95.1885 26.572C95.1885 26.0509 95.5686 25.6699 96.1467 25.6699C96.7249 25.6699 97.0487 26.0081 97.0487 26.5291C97.0345 27.093 96.6543 27.4312 96.0905 27.4312ZM124.54 35.6046C124.92 35.5484 125.16 35.5055 125.344 35.3227C125.582 35.0836 125.582 34.5197 125.582 33.2652V31.2497C125.582 30.3905 125.582 29.9534 125.427 29.7705C125.328 29.6152 125.145 29.5313 124.624 29.4885V29.0514C124.906 29.1076 125.682 28.9952 126.245 28.8962C126.527 28.84 126.865 28.7409 127.02 28.657L127.175 28.8123C127.119 29.2771 127.119 30.2915 127.119 31.6307V33.6882C127.119 34.6464 127.175 35.0835 127.274 35.2665C127.429 35.4493 127.711 35.6046 128.133 35.6046V35.9427C127.696 35.8865 126.992 35.8865 126.372 35.8865C125.654 35.8865 124.893 35.9427 124.511 35.9856V35.6056L124.54 35.6046ZM126.302 27.4312C125.738 27.4312 125.4 27.093 125.4 26.572C125.4 26.0509 125.78 25.6699 126.358 25.6699C126.936 25.6699 127.259 26.0081 127.259 26.5291C127.259 27.093 126.866 27.4312 126.302 27.4312ZM118.748 35.7027C118.748 34.9845 118.692 34.2235 118.649 33.8426H119.114C119.114 34.2226 119.213 34.5608 119.396 34.7445C119.678 35.0827 120.016 35.2094 120.637 35.2094H120.735C121.51 35.2094 121.933 34.8712 121.933 34.2092C121.933 33.6882 121.595 33.4338 121.031 33.0958L120.03 32.4757C119.51 32.1375 118.889 31.6727 118.889 30.6583C118.889 29.8553 119.228 29.2351 119.889 28.897C120.326 28.6579 121.003 28.6579 121.313 28.6579C121.877 28.6579 122.708 28.7569 123.172 28.8408C123.116 29.0237 123.116 29.5171 123.116 29.7C123.116 29.8553 123.116 30.503 123.172 30.6583H122.708C122.708 30.3763 122.608 30.0943 122.426 29.8553C122.243 29.6161 121.806 29.4751 121.285 29.4751C120.567 29.4751 120.171 29.7571 120.171 30.3772C120.171 30.842 120.551 31.0954 120.889 31.3354H120.946L121.904 31.8993C122.524 32.2794 123.327 32.7585 123.327 33.8577C123.327 35.7179 121.594 35.9998 120.607 35.9998C120.044 35.9856 119.423 35.9436 118.747 35.7036L118.748 35.7027ZM133.756 35.2379C133.517 35.477 132.98 36.0409 131.839 36.0409C130.698 36.0409 130.106 35.6609 129.881 34.7445C129.781 34.4064 129.781 33.6872 129.781 33.3214V29.7562H128.824V29.4743C129.204 29.319 129.444 29.1924 129.725 29.0094C130.247 28.5722 130.627 28.0512 131.064 27.2759H131.403V28.8542H133.783V29.7134H131.403V33.4338C131.403 34.5474 131.585 35.1951 132.642 35.1951C133.107 35.1951 133.445 35.0398 133.643 34.9132L133.755 35.237L133.756 35.2379ZM101.431 28.8265C101.276 28.8265 100.967 28.8265 100.755 28.8827C100.375 28.8827 99.9791 28.939 99.6972 28.939C99.1765 28.939 98.4013 28.8827 98.1755 28.8827V29.3199C98.2745 29.3199 98.64 29.2637 98.8935 29.7571C98.9927 29.94 99.0487 30.0953 99.0762 30.1943C99.1332 30.2933 99.1755 30.3772 99.1755 30.4334L101.472 36.1685L102.191 36.0133L104.726 30.3763C104.726 30.3201 104.783 30.2773 104.826 30.1934C104.882 30.1372 104.882 30.0381 105.065 29.7562C105.221 29.4743 105.53 29.319 105.784 29.319V28.8818C105.502 28.8818 104.881 28.9381 104.387 28.9381C104.149 28.9381 103.923 28.9381 103.669 28.8818C103.487 28.8818 103.205 28.8256 102.993 28.8256V29.2057C103.232 29.2057 103.458 29.3048 103.557 29.3886C103.613 29.4449 103.713 29.5715 103.713 29.6706C103.713 29.8258 103.657 29.9525 103.53 30.3888L102.134 33.7711C102.078 33.5882 101.978 33.3063 101.852 32.9119L100.894 30.3754C100.739 29.9953 100.711 29.8544 100.711 29.6572C100.711 29.5582 100.711 29.4743 100.81 29.4181C100.966 29.2628 101.191 29.1789 101.43 29.1789V28.7989V28.8274L101.431 28.8265ZM85.818 29.1085C86.198 29.1647 86.72 29.1085 87.241 29.0094C87.6782 28.9104 87.861 28.8542 88.1992 28.7275L88.3544 28.8265V29.3905C88.6926 29.1085 89.4678 28.7141 90.4118 28.7141C91.7081 28.7141 92.5111 29.3342 92.7653 30.3905C92.8215 30.6725 92.8644 31.2926 92.8644 31.6869V33.7444C92.8644 34.8855 92.9206 35.2237 93.1463 35.4779C93.2454 35.577 93.5263 35.6609 93.8226 35.6609V35.9989C93.3578 35.9989 92.5263 35.9427 92.0614 35.9427C91.3851 35.9427 90.6661 35.9989 90.3003 36.0418V35.7036C90.6384 35.6474 90.8641 35.5484 91.0185 35.4646C91.2013 35.2816 91.2575 34.8444 91.3004 33.9853V32.7451C91.3004 32.2241 91.3004 31.6316 91.2442 31.1249C91.1451 30.2228 90.6803 29.7866 89.7649 29.7866C89.1449 29.7866 88.7077 29.9418 88.4267 30.0685V33.8166C88.4267 34.9578 88.4829 35.2959 88.7086 35.5502C88.8076 35.6492 89.0887 35.7331 89.3848 35.7331V36.0713C88.7648 35.916 88.0466 35.916 87.5675 35.916C86.6093 35.916 86.3274 35.916 85.8064 36.0151V35.6769C86.0882 35.6769 86.4264 35.5778 86.5816 35.3949C86.7646 35.1559 86.8208 34.5357 86.8208 33.3375V31.322C86.8208 30.4629 86.8208 30.0818 86.6655 29.899C86.5665 29.7438 86.3274 29.617 85.8626 29.6599V29.1245H85.8206V29.1102L85.818 29.1085ZM109.04 36.0418C106.898 36.0418 105.728 34.8017 105.728 32.547C105.728 32.167 105.827 28.6721 109.067 28.6721C110.026 28.6721 110.885 29.0523 111.266 29.7294C111.703 30.4058 111.731 31.0678 111.731 31.6459V32.0831H107.292C107.292 32.4631 107.348 32.7593 107.391 32.9851C107.63 34.3805 108.391 35.0425 109.745 35.0425C110.52 35.0425 110.985 34.8872 111.421 34.6054L111.604 34.9434C111.153 35.5778 110.195 36.0427 109.039 36.0427L109.04 36.0418ZM107.32 31.265H110.083C110.083 30.4058 109.928 29.4475 108.687 29.4475C107.602 29.5037 107.376 30.5324 107.32 31.265Z" fill="black" fill-opacity="0.4"/>
<path d="M59.1292 19.9072C57.8034 18.5886 56.4812 17.2655 55.1617 15.9406C55.0582 15.837 54.9564 15.7916 54.8092 15.7924C53.7297 15.7978 52.6502 15.7933 51.5706 15.7978C51.4359 15.7978 51.3218 15.7666 51.2084 15.6978C50.8623 15.4873 50.5151 15.2776 50.2519 14.9601C50.2208 14.9225 50.1913 14.8823 50.161 14.8431C50.5098 14.8922 50.8515 14.9431 51.1933 14.9877C51.3137 15.0038 51.4377 14.9984 51.5581 15.0163C51.709 15.0377 51.8642 15.0546 52.0061 15.1055C52.4316 15.2589 52.808 15.018 52.8295 14.5657C52.8312 14.5282 52.8295 14.4898 52.8295 14.4381H59.2648V7.3058C58.8187 6.87487 58.361 6.43322 57.9034 5.99247C57.1629 5.2796 56.4232 4.56673 55.6818 3.85386C55.2928 3.48002 54.9029 3.10709 54.5139 2.73325C54.4684 2.68953 54.4274 2.63957 54.3836 2.59229H41.3882C41.1669 2.81355 40.9483 3.03839 40.7226 3.25608C39.6823 4.25892 38.6394 5.25908 37.5982 6.26013C37.2601 6.5849 36.9228 6.91055 36.5838 7.23442C36.557 7.2603 36.5213 7.27635 36.4901 7.29777V20.0643C36.5427 20.1098 36.599 20.1518 36.648 20.2008C37.9755 21.5266 39.3032 22.8534 40.6271 24.1827C40.7262 24.2826 40.8252 24.3228 40.9644 24.3201C41.4721 24.313 41.9797 24.3175 42.4874 24.3175H42.7095C42.7006 24.3978 42.6944 24.454 42.6872 24.5093C42.6533 24.769 42.7952 24.9848 43.0521 25.0366C43.169 25.0607 43.2939 25.0545 43.4152 25.0526C43.5357 25.0499 43.6552 25.0348 43.7748 25.0259C43.7819 25.0384 43.789 25.0499 43.7962 25.0624C43.765 25.0928 43.739 25.1339 43.7025 25.1525C43.6222 25.1927 43.5357 25.2185 43.4536 25.2543C43.2386 25.3488 43.0762 25.4961 43.0003 25.7379C42.9432 25.7405 42.887 25.7467 42.8308 25.7467C40.7743 25.7467 38.7179 25.7467 36.6614 25.7467C36.6043 25.7467 36.5463 25.7388 36.4893 25.7351V32.292C36.5722 32.358 36.6614 32.4178 36.7372 32.4909C38.0568 33.7596 39.3745 35.0311 40.6923 36.3015C40.9278 36.5291 41.1634 36.7565 41.4033 36.9885H54.3783C56.0101 35.4183 57.6428 33.8462 59.2791 32.2714V32.0564C59.2791 28.1299 59.2782 24.2032 59.2826 20.2767C59.2826 20.1214 59.2363 20.0161 59.1283 19.9082L59.1292 19.9072ZM58.5671 32.1617C57.7454 32.9478 56.9273 33.7373 56.1074 34.5252C55.4962 35.1131 54.8833 35.6993 54.2748 36.2899C54.1812 36.3809 54.0839 36.4176 53.9518 36.4176C49.9156 36.4139 45.8794 36.4139 41.8423 36.4176C41.6924 36.4176 41.5889 36.3684 41.4881 36.2703C40.9358 35.7323 40.3809 35.197 39.8259 34.6625C38.9516 33.8203 38.0773 32.9771 37.2003 32.1385C37.1048 32.0475 37.0638 31.9556 37.0638 31.8209C37.07 30.0597 37.07 28.2985 37.0718 26.5373C37.0718 26.4748 37.0718 26.4115 37.0718 26.3294H43.7158C43.723 26.3151 43.7302 26.3009 43.7373 26.2874C43.6695 26.2294 43.5954 26.1768 43.5357 26.1108C43.4777 26.0466 43.417 25.9743 43.3911 25.894C43.3572 25.7905 43.4241 25.6772 43.5651 25.629C43.7766 25.5576 43.9952 25.5023 44.2146 25.4631C44.6607 25.3845 45.047 25.2043 45.3369 24.8475C45.3896 24.7832 45.4342 24.7109 45.4726 24.6378C45.5583 24.4754 45.519 24.3344 45.3602 24.2443C45.2112 24.1595 45.0496 24.1435 44.8998 24.2309C44.435 24.5021 43.9327 24.6404 43.3983 24.669C43.2939 24.6743 43.1885 24.6627 43.0477 24.6573C43.1297 24.2987 43.2501 24.0052 43.5241 23.7491C43.4277 23.7447 43.3733 23.7393 43.3179 23.7393C42.6042 23.7393 41.8914 23.7358 41.1776 23.7419C41.0509 23.7429 40.9635 23.7036 40.8752 23.6153C39.6457 22.3814 38.4145 21.1492 37.1806 19.9198C37.1021 19.8422 37.0638 19.7655 37.0638 19.6521C37.0665 15.6604 37.0665 11.6696 37.0665 7.67784V7.57167C37.4064 7.24424 37.7472 6.91412 38.0898 6.5849C38.8767 5.82831 39.6645 5.07172 40.4523 4.31513C40.8047 3.97698 41.158 3.63973 41.506 3.29801C41.6041 3.20166 41.7067 3.16508 41.8468 3.16508C45.8767 3.16865 49.9067 3.16865 53.9367 3.16508C54.0848 3.16508 54.1874 3.21148 54.2909 3.3114C55.7193 4.68985 57.1503 6.06652 58.5831 7.44052C58.6786 7.53153 58.7215 7.62432 58.7215 7.75814C58.7179 9.71832 58.7188 11.6794 58.7188 13.6396V13.8519H52.0069C52.1255 14.008 52.2344 14.1401 52.3299 14.2802C52.3789 14.3524 52.4235 14.4372 52.4396 14.522C52.4726 14.7048 52.3255 14.8226 52.1559 14.7468C51.9632 14.6602 51.7615 14.6407 51.5555 14.629C50.9113 14.5933 50.2742 14.5246 49.6881 14.224C49.6516 14.2052 49.6043 14.2087 49.5543 14.1999C49.4481 14.3899 49.5061 14.5603 49.5971 14.7174C49.7854 15.043 50.0191 15.3401 50.3243 15.5578C50.715 15.837 51.1299 16.0842 51.5394 16.3358C51.5983 16.3724 51.6875 16.3706 51.7624 16.3715C52.7011 16.3733 53.6396 16.3751 54.5773 16.3706C54.7165 16.3706 54.8155 16.409 54.9155 16.5089C56.135 17.7347 57.3573 18.9571 58.5831 20.1767C58.6822 20.2758 58.7223 20.3739 58.7215 20.5131C58.7179 24.28 58.7179 28.046 58.7215 31.8129C58.7215 31.9636 58.6714 32.0626 58.5671 32.1617Z" fill="black" fill-opacity="0.4"/>
<path d="M49.2751 8.25945C49.5177 8.47448 49.5007 8.5967 49.2197 8.74481C49.1912 8.75998 49.1627 8.77514 49.1367 8.79388C49.0645 8.84473 48.9771 8.88399 48.9797 9.01871C49.0296 9.04637 49.0886 9.08028 49.1474 9.11329C49.4651 9.28994 49.7541 9.50229 49.9602 9.80743C50.0628 9.96002 50.0147 10.0519 49.8308 10.0599C49.7033 10.0652 49.5739 10.0536 49.4472 10.0368C49.2126 10.0055 49.1617 10.1437 49.1787 10.3044C49.1867 10.3847 49.2152 10.4668 49.2519 10.539C49.316 10.6649 49.4321 10.7353 49.5578 10.7915C49.8335 10.9137 50.1155 11.0244 50.3813 11.1671C50.5536 11.26 50.7177 11.3831 50.8524 11.5241C50.9934 11.6712 50.9327 11.8416 50.7346 11.8872C50.6071 11.9166 50.4679 11.9121 50.3358 11.905C50.1378 11.8943 49.9406 11.8533 49.7434 11.8523C49.5739 11.8523 49.4026 11.8872 49.2652 11.9978C49.2679 12.1325 49.3366 12.2093 49.4285 12.2592C49.5632 12.3324 49.6997 12.41 49.8461 12.4537C50.3341 12.5991 50.765 12.849 51.1692 13.1505C51.2691 13.2246 51.3672 13.2522 51.4886 13.2513C52.1381 13.2478 52.7866 13.2504 53.4361 13.2495C54.927 13.2469 56.4187 13.2442 57.9095 13.2406C57.972 13.2406 58.0345 13.2353 58.1165 13.2317C58.1165 13.1434 58.1165 13.0676 58.1165 12.9926C58.1165 11.3536 58.1139 9.71464 58.121 8.07566C58.121 7.90435 58.0648 7.79016 57.9462 7.67684C57.2752 7.03981 56.6114 6.39564 55.9441 5.75414C55.3053 5.13941 54.6621 4.52914 54.0286 3.90907C53.926 3.80913 53.8252 3.77612 53.6886 3.77612C49.8255 3.77881 45.9624 3.77791 42.0993 3.77791C42.0733 3.77791 42.0475 3.78058 42.0225 3.77791C41.9315 3.7681 41.8673 3.80646 41.8022 3.8698C40.4701 5.15369 39.1363 6.43667 37.7998 7.7161C37.7133 7.79908 37.6758 7.87938 37.6758 7.99893C37.6784 11.7917 37.6784 15.5836 37.6758 19.3763C37.6758 19.4959 37.7133 19.5789 37.7962 19.6627C38.9151 20.7807 40.0312 21.8995 41.1446 23.0227C41.2392 23.1182 41.3337 23.1521 41.4658 23.1513C42.3588 23.1459 43.2528 23.1379 44.1459 23.1539C44.4831 23.1602 44.7856 23.0835 45.0934 22.9594C45.5395 22.7792 45.5671 22.3911 45.5332 21.9611C45.5323 21.9458 45.5091 21.9334 45.5163 21.9405C45.3298 21.9405 45.1648 21.9512 45.0024 21.937C44.8623 21.9254 44.7249 21.8834 44.5866 21.8566C44.2913 21.7995 44.0013 21.7808 43.7212 21.9289C43.6642 21.9593 43.5901 21.9565 43.5312 21.9681C43.4571 21.8584 43.5071 21.7763 43.5437 21.6961C43.7506 21.2401 44.1209 20.9457 44.5492 20.7226C45.0238 20.4755 45.469 20.1847 45.8999 19.8697C46.0703 19.7457 46.2033 19.5868 46.288 19.3986C46.3416 19.2799 46.3692 19.1408 46.3736 19.0105C46.3799 18.8178 46.247 18.7473 46.0784 18.8339C46.0498 18.8481 46.0222 18.8651 45.9963 18.8839C45.4431 19.2862 44.8329 19.3032 44.1968 19.1488C44.1753 19.0284 44.1727 19.0087 44.2449 18.9275C44.3939 18.7589 44.5456 18.5921 44.7553 18.4939C44.9239 18.4154 45.0951 18.3413 45.2593 18.2539C45.4289 18.1638 45.601 18.0728 45.7518 17.9568C45.965 17.7917 46.1025 17.5669 46.1542 17.2965C46.1702 17.2136 46.1854 17.1288 46.0623 17.0628C45.9882 17.0995 45.8874 17.1288 45.8098 17.1895C45.4877 17.4393 45.1148 17.5116 44.7223 17.509C44.2235 17.5063 43.8033 17.6597 43.4963 18.0737C43.4331 18.1585 43.3572 18.245 43.2287 18.2468C43.1083 18.1531 43.119 18.0184 43.1351 17.8944C43.169 17.6205 43.2118 17.3474 43.2617 17.0762C43.3866 16.4044 43.7381 15.8977 44.3493 15.5711C44.6437 15.4141 44.9221 15.2276 45.204 15.0482C45.5002 14.8599 45.7402 14.6074 45.9481 14.3282C46.0347 14.2114 46.1078 14.0766 46.1533 13.9392C46.2122 13.7599 46.2131 13.5743 46.0525 13.3968C45.9776 13.4503 45.9062 13.4994 45.8366 13.5503C45.7277 13.6288 45.6305 13.7421 45.5091 13.7822C45.1371 13.9053 44.7571 14.0053 44.3564 13.9401C44.1156 13.9008 43.8827 13.9259 43.6623 14.0374C43.6391 14.049 43.6159 14.0597 43.5918 14.0686C43.4241 14.1266 43.2886 14.024 43.3135 13.8464C43.3251 13.767 43.3599 13.6841 43.4071 13.6189C43.4786 13.5217 43.5651 13.4325 43.6552 13.3512C44.1111 12.9408 44.625 12.6107 45.155 12.3074C45.5618 12.0746 45.9855 11.8728 46.3915 11.6391C46.5262 11.5615 46.6484 11.4437 46.7448 11.3197C46.8911 11.1323 46.801 10.9281 46.5646 10.8995C46.4611 10.887 46.3504 10.9183 46.2461 10.9414C46.1212 10.969 46.0008 11.0306 45.8758 11.0387C45.6582 11.0538 45.4396 11.0431 45.221 11.0342C45.1496 11.0306 45.08 10.9968 44.9738 10.9655C45.0291 10.8691 45.0586 10.7924 45.1104 10.7344C45.2566 10.5694 45.4324 10.4409 45.6359 10.3516C45.8419 10.2615 46.048 10.1723 46.2514 10.0777C46.4326 9.99391 46.5476 9.85293 46.5797 9.65397C46.6145 9.44073 46.5173 9.33635 46.3049 9.35329C46.2086 9.36043 46.1132 9.37828 46.0168 9.37738C45.9311 9.37649 45.8455 9.35597 45.733 9.34081C45.7581 9.24623 45.7616 9.17306 45.7955 9.11954C45.85 9.03388 45.9178 8.95358 45.9909 8.88221C46.2621 8.61901 46.569 8.41469 46.9384 8.31209C47.0561 8.27908 47.1722 8.23625 47.2034 8.08458C47.1293 7.98911 47.0231 7.9677 46.9153 7.9561C46.7813 7.94182 46.6449 7.94093 46.5128 7.91596C46.4504 7.90435 46.3639 7.86064 46.3487 7.81156C46.3344 7.76517 46.3826 7.67684 46.4299 7.63758C46.562 7.52606 46.71 7.43417 46.8456 7.32709C47.0214 7.18791 47.1989 7.04873 47.3595 6.89349C47.4737 6.78374 47.4586 6.70702 47.3381 6.60173C47.2507 6.5259 47.1552 6.45987 47.0687 6.38315C47.0071 6.32961 46.9367 6.27608 46.9616 6.15117C47.0107 6.13779 47.0696 6.10924 47.1285 6.10834C47.2917 6.10746 47.3978 6.02359 47.4594 5.88619C47.5174 5.75771 47.5648 5.62388 47.6022 5.48827C47.6602 5.27771 47.7039 5.06357 47.7574 4.85213C47.7753 4.78164 47.7789 4.6942 47.8993 4.68528C47.9153 4.75398 47.9323 4.82179 47.9474 4.8896C47.9983 5.10819 48.0403 5.32946 48.1018 5.54537C48.1607 5.75325 48.2642 5.92366 48.5229 5.92187C48.5764 5.92187 48.6309 5.96559 48.6835 5.98879C48.6461 6.16098 48.5132 6.22255 48.4221 6.31712C48.2642 6.48129 48.2972 6.66062 48.5095 6.73914C48.5978 6.77215 48.6969 6.78107 48.7915 6.79624C48.9726 6.82568 49.0136 6.914 48.8958 7.05676C48.8227 7.14509 48.7299 7.21646 48.6416 7.29052C48.4756 7.42792 48.456 7.51178 48.5925 7.67684C48.6898 7.79462 48.8084 7.89543 48.9262 7.99447C49.0386 8.08904 49.1689 8.16399 49.2795 8.26124L49.2751 8.25945Z" fill="black" fill-opacity="0.4"/>
<path d="M54.6237 17.0914C54.5443 17.0119 54.4667 16.9789 54.3543 16.9798C53.6985 16.9843 53.0436 16.9816 52.3878 16.9825C52.3379 16.9825 52.2879 16.9869 52.2245 16.9905C52.245 17.0422 52.2594 17.0833 52.278 17.1225C52.4547 17.4856 52.5306 17.8765 52.5797 18.2726C52.6055 18.4876 52.4949 18.5938 52.2826 18.5501C52.1469 18.5224 52.0176 18.4591 51.8873 18.4064C51.7865 18.3654 51.6919 18.3092 51.5902 18.2717C51.1271 18.1022 50.6614 17.9362 50.1974 17.7694C50.1188 17.7409 50.0421 17.706 49.961 17.6865C49.8307 17.6552 49.7218 17.7042 49.6291 17.7962C49.5372 17.8872 49.5746 17.9871 49.6129 18.0826C49.7362 18.3903 49.9271 18.6419 50.2242 18.8008C50.3652 18.8767 50.5097 18.948 50.656 19.0131C51.0102 19.1701 51.3448 19.3602 51.6276 19.6288C51.6963 19.6939 51.7633 19.7679 51.8088 19.8509C51.8944 20.0044 51.8141 20.1168 51.6366 20.1061C51.6116 20.1043 51.5839 20.1025 51.5616 20.0918C51.344 19.9901 51.1226 20.0169 50.9013 20.0695C50.5828 20.1454 50.2777 20.1087 49.9806 19.9731C49.8584 19.9169 49.7316 19.8706 49.6032 19.8286C49.5479 19.8107 49.4836 19.817 49.4274 19.8116C49.3774 19.9285 49.4203 20.0097 49.4622 20.0883C49.5729 20.2952 49.7246 20.4665 49.9172 20.603C50.3464 20.9091 50.7863 21.1963 51.2583 21.4346C51.9925 21.8039 52.3664 22.4392 52.5404 23.2136C52.5555 23.2805 52.5368 23.3546 52.5332 23.4688C52.3941 23.4117 52.2789 23.3929 52.2013 23.3288C51.9988 23.1601 51.7713 23.1093 51.5187 23.1253C51.103 23.1511 50.7488 23.0201 50.4606 22.714C50.4231 22.6738 50.3606 22.6569 50.3107 22.6301C50.118 22.9504 50.2215 23.3957 50.515 23.566C50.6033 23.6169 50.7015 23.6508 50.7952 23.6928C51.1342 23.8462 51.4769 23.9925 51.8106 24.1567C51.9586 24.2298 52.0987 24.328 52.2236 24.4368C52.4842 24.6635 52.6207 24.9615 52.701 25.3442C52.5662 25.3496 52.4663 25.3621 52.3681 25.3576C51.8346 25.3299 51.3296 25.1996 50.8648 24.9267C50.6925 24.8258 50.5178 24.8463 50.3571 24.9578C50.2295 25.0462 50.1929 25.1773 50.2705 25.3085C50.342 25.429 50.4214 25.5494 50.5178 25.6502C50.8103 25.9536 51.1807 26.099 51.5928 26.1615C51.782 26.19 51.9739 26.2311 52.1505 26.3015C52.3994 26.4006 52.4628 26.6004 52.3396 26.836C52.2896 26.9314 52.2192 27.018 52.1478 27.0992C51.9693 27.2999 51.9604 27.481 52.1416 27.6782C52.2013 27.7425 52.2798 27.7906 52.3548 27.8397C52.4993 27.9342 52.6528 28.0181 52.7938 28.1181C53.0106 28.2733 53.2105 28.4554 53.305 28.7079C53.4567 29.1165 53.5887 29.5322 53.7127 29.9506C53.7503 30.0765 53.7457 30.2184 53.7369 30.3522C53.7271 30.502 53.6298 30.5717 53.4835 30.5324C53.3675 30.5011 53.2515 30.4539 53.148 30.3914C52.9062 30.246 52.6769 30.0791 52.4324 29.9364C52.1282 29.7588 51.8213 29.5822 51.5027 29.4331C51.2323 29.3065 50.9397 29.2672 50.6372 29.3091C50.4722 29.3314 50.3036 29.327 50.1376 29.3369C49.8022 29.3555 49.5051 29.2584 49.2418 29.0496C49.1526 28.979 49.0571 28.8827 48.9349 28.9335C48.7966 28.9915 48.8234 29.1361 48.8234 29.2556C48.8216 30.0399 48.8216 30.8242 48.8234 31.6075C48.8234 31.8903 48.8153 32.174 48.8376 32.4551C48.9037 33.2955 49.2471 33.9709 50.0226 34.3795C50.3499 34.5527 50.6265 34.79 50.8674 35.0719C50.938 35.154 51.0191 35.2317 51.1101 35.2896C51.5786 35.5876 52.088 35.7767 52.6448 35.8036C53.0168 35.8214 53.3898 35.8089 53.7627 35.8169C53.8635 35.8187 53.9296 35.7785 53.9974 35.7116C54.4399 35.2816 54.8852 34.8552 55.3295 34.4278C56.2191 33.573 57.1068 32.7174 57.999 31.8653C58.0847 31.7833 58.1203 31.7003 58.1203 31.5798C58.1177 27.9682 58.1177 24.3557 58.1203 20.744C58.1203 20.6236 58.0829 20.5415 57.999 20.4585C56.873 19.3397 55.7488 18.2182 54.6273 17.0949L54.6237 17.0914Z" fill="black" fill-opacity="0.4"/>
<path d="M46.6302 27.7187C46.5141 27.8088 46.4017 27.9069 46.2992 28.0121C46.1332 28.1826 45.9404 28.3066 45.712 28.3654C45.5265 28.4137 45.3364 28.4476 45.1464 28.4725C44.9179 28.5038 44.6761 28.4832 44.4594 28.5475C43.7189 28.7696 43.0451 29.1212 42.5 29.685C42.4259 29.7618 42.3501 29.8304 42.2324 29.7939C42.119 29.7591 42.0825 29.661 42.0539 29.5602C42.0433 29.5235 42.0433 29.4843 42.0414 29.4459C42.0263 29.073 42.3769 28.0381 42.6151 27.7517C42.8676 27.4483 43.1942 27.2475 43.5448 27.0807C43.6171 27.0468 43.6858 27.0066 43.7563 26.9692C43.7519 26.9603 43.7473 26.9513 43.7438 26.9424H37.6918C37.6891 27.0075 37.6838 27.0637 37.6838 27.1199C37.6802 28.5849 37.6811 30.0499 37.6704 31.5158C37.6695 31.6881 37.7284 31.8022 37.848 31.9146C38.3253 32.3634 38.7964 32.8184 39.2693 33.2726C40.1124 34.0827 40.9547 34.8938 41.7943 35.7065C41.8647 35.7744 41.9325 35.8065 42.0307 35.8046C42.4224 35.8002 42.815 35.8065 43.2067 35.802C43.7143 35.7958 44.1605 35.6218 44.5423 35.2854C44.8154 35.0445 45.0259 34.7528 45.2089 34.4423C45.4168 34.0908 45.6719 33.7803 45.9743 33.5064C46.1171 33.377 46.2546 33.2405 46.4026 33.1183C46.6114 32.9469 46.722 32.723 46.7925 32.4696C46.8925 32.1074 46.9219 31.7344 46.9255 31.3632C46.938 30.1811 46.9362 28.999 46.938 27.8158C46.938 27.7552 46.9228 27.6955 46.9157 27.6383C46.7863 27.6026 46.7033 27.6615 46.6302 27.7187Z" fill="black" fill-opacity="0.4"/>
</g>
</svg>
