<svg width="259" height="162" viewBox="0 0 259 162" fill="none" xmlns="http://www.w3.org/2000/svg">
<path d="M0 56.6619L227.971 89.4769L258.566 120.352L0 56.6619Z" fill="#86C72C"/>
<path opacity="0.6" d="M0 56.6619L227.971 89.4769L258.566 120.352L0 56.6619Z" fill="white"/>
<path d="M0 56.6619L227.971 89.4769L217.392 134.122L0 56.6619Z" fill="#86C72C"/>
<path opacity="0.2" d="M0 56.6619L227.971 89.4769L217.392 134.122L0 56.6619Z" fill="black"/>
<path d="M212.71 4.97586L225.947 67.0029C226.664 70.3619 224.502 73.6969 221.143 74.4139L103.064 99.6129C99.7051 100.33 96.3701 98.1679 95.6531 94.8089L82.4161 32.7819C82.0411 31.0259 82.4541 29.2719 83.4121 27.8969C84.2901 26.6509 85.6171 25.7129 87.2201 25.3709L205.299 0.171862C206.902 -0.170138 208.497 0.143861 209.807 0.922861C211.242 1.78686 212.336 3.21986 212.71 4.97586Z" fill="#86C72C"/>
<path opacity="0.4" d="M212.71 4.97586L225.947 67.0029C226.664 70.3619 224.502 73.6969 221.143 74.4139L103.064 99.6129C99.7051 100.33 96.3701 98.1679 95.6531 94.8089L82.4161 32.7819C82.0411 31.0259 82.4541 29.2719 83.4121 27.8969C84.2901 26.6509 85.6171 25.7129 87.2201 25.3709L205.299 0.171862C206.902 -0.170138 208.497 0.143861 209.807 0.922861C211.242 1.78686 212.336 3.21986 212.71 4.97586Z" fill="black"/>
<path d="M209.807 0.922826L170.35 49.3548C162.815 58.6048 149.856 61.3698 139.201 56.0018L83.4111 27.8958C84.2891 26.6498 85.6161 25.7118 87.2191 25.3698L205.298 0.170827C206.903 -0.171173 208.497 0.143826 209.807 0.922826Z" fill="#86C72C"/>
<path d="M0 56.6619L188.033 101.347L217.392 134.122L0 56.6619Z" fill="#86C72C"/>
<path opacity="0.6" d="M0 56.6619L188.033 101.347L217.392 134.122L0 56.6619Z" fill="white"/>
<path d="M68.5863 99.7522L68.0803 100.616L89.0006 112.873L89.5066 112.009L68.5863 99.7522Z" fill="#86C72C"/>
<path d="M98.7497 117.418L98.2437 118.282L105.77 122.692L106.276 121.828L98.7497 117.418Z" fill="#86C72C"/>
<path d="M0 56.6619L188.033 101.347L151.484 145.403L0 56.6619Z" fill="#86C72C"/>
<path d="M251.503 161.362C251.259 161.362 251.01 161.316 250.768 161.22L220.134 149.092C219.107 148.686 218.604 147.524 219.011 146.496C219.417 145.47 220.574 144.964 221.607 145.373L252.241 157.501C253.268 157.907 253.771 159.069 253.364 160.097C253.053 160.882 252.3 161.362 251.503 161.362Z" fill="#86C72C"/>
<path opacity="0.3" d="M251.503 161.362C251.259 161.362 251.01 161.316 250.768 161.22L220.134 149.092C219.107 148.686 218.604 147.524 219.011 146.496C219.417 145.47 220.574 144.964 221.607 145.373L252.241 157.501C253.268 157.907 253.771 159.069 253.364 160.097C253.053 160.882 252.3 161.362 251.503 161.362Z" fill="black"/>
<path d="M249.699 143.795C249.455 143.795 249.206 143.75 248.964 143.654L232.512 137.14C231.485 136.734 230.982 135.572 231.389 134.544C231.794 133.518 232.953 133.012 233.985 133.421L250.437 139.935C251.464 140.341 251.967 141.503 251.56 142.531C251.248 143.316 250.496 143.795 249.699 143.795Z" fill="#86C72C"/>
<path opacity="0.5" d="M249.699 143.795C249.455 143.795 249.206 143.75 248.964 143.654L232.512 137.14C231.485 136.734 230.982 135.572 231.389 134.544C231.794 133.518 232.953 133.012 233.985 133.421L250.437 139.935C251.464 140.341 251.967 141.503 251.56 142.531C251.248 143.316 250.496 143.795 249.699 143.795Z" fill="white"/>
<path d="M215.305 161.059C215.061 161.059 214.812 161.013 214.57 160.917L184.701 149.091C183.674 148.685 183.171 147.522 183.578 146.495C183.984 145.468 185.145 144.965 186.174 145.372L216.043 157.198C217.07 157.604 217.573 158.766 217.166 159.794C216.855 160.58 216.102 161.059 215.305 161.059Z" fill="#86C72C"/>
<path opacity="0.3" d="M215.305 161.059C215.061 161.059 214.812 161.013 214.57 160.917L184.701 149.091C183.674 148.685 183.171 147.522 183.578 146.495C183.984 145.468 185.145 144.965 186.174 145.372L216.043 157.198C217.07 157.604 217.573 158.766 217.166 159.794C216.855 160.58 216.102 161.059 215.305 161.059Z" fill="black"/>
</svg>
